<?xml version="1.0" encoding="UTF-8"?>
<!DOCTYPE svg PUBLIC "-//W3C//DTD SVG 1.1//EN" "http://www.w3.org/Graphics/SVG/1.1/DTD/svg11.dtd">
<svg xmlns="http://www.w3.org/2000/svg" version="1.1" width="1024px" height="1024px" style="shape-rendering:geometricPrecision; text-rendering:geometricPrecision; image-rendering:optimizeQuality; fill-rule:evenodd; clip-rule:evenodd" xmlns:xlink="http://www.w3.org/1999/xlink">
<g><path style="opacity:1" fill="#255c88" d="M 528.5,294.5 C 579.467,296.428 622.967,315.094 659,350.5C 659.982,351.759 660.315,353.092 660,354.5C 641.799,372.379 623.466,389.712 605,406.5C 569.084,370.574 526.584,360.408 477.5,376C 461.485,381.887 447.152,390.387 434.5,401.5C 432.097,401.393 430.264,402.393 429,404.5C 432.097,389.561 437.763,375.561 446,362.5C 463.513,335.656 486.68,315.156 515.5,301C 520.405,299.047 525.405,297.38 530.5,296C 529.584,295.722 528.918,295.222 528.5,294.5 Z"/></g>
<g><path style="opacity:1" fill="#0f3046" d="M 510.5,295.5 C 516.31,294.51 522.31,294.177 528.5,294.5C 528.918,295.222 529.584,295.722 530.5,296C 525.405,297.38 520.405,299.047 515.5,301C 486.68,315.156 463.513,335.656 446,362.5C 437.763,375.561 432.097,389.561 429,404.5C 430.264,402.393 432.097,401.393 434.5,401.5C 399.331,434.3 385.165,474.967 392,523.5C 403.488,576.807 434.988,611.807 486.5,628.5C 487.263,629.268 488.263,629.768 489.5,630C 429.704,626.023 381.871,600.19 346,552.5C 334.79,535.888 326.457,517.888 321,498.5C 320.329,497.748 319.496,497.414 318.5,497.5C 318.546,472.995 322.88,449.329 331.5,426.5C 332.117,426.611 332.617,426.944 333,427.5C 366.583,348.213 425.749,304.213 510.5,295.5 Z"/></g>
<g><path style="opacity:0.533" fill="#011b31" d="M 510.5,295.5 C 425.749,304.213 366.583,348.213 333,427.5C 332.617,426.944 332.117,426.611 331.5,426.5C 360.337,355.502 412.337,312.335 487.5,297C 495.113,295.738 502.78,295.238 510.5,295.5 Z"/></g>
<g><path style="opacity:1" fill="#3d90b1" d="M 599.5,487.5 C 598.883,487.389 598.383,487.056 598,486.5C 592.703,457.721 578.203,434.887 554.5,418C 545.061,412.798 535.061,409.298 524.5,407.5C 524.17,400.8 524.503,394.134 525.5,387.5C 556.674,387.336 581.174,400.003 599,425.5C 599.5,446.164 599.667,466.831 599.5,487.5 Z"/></g>
<g><path style="opacity:1" fill="#58badb" d="M 524.5,407.5 C 535.061,409.298 545.061,412.798 554.5,418C 578.203,434.887 592.703,457.721 598,486.5C 598.383,487.056 598.883,487.389 599.5,487.5C 599.91,504.542 599.41,521.542 598,538.5C 590.252,571.584 571.418,595.751 541.5,611C 536.833,612.5 532.167,614 527.5,615.5C 526.833,615.167 526.167,614.833 525.5,614.5C 524.503,545.541 524.17,476.541 524.5,407.5 Z"/></g>
<g><path style="opacity:1" fill="#1d4b70" d="M 318.5,497.5 C 319.496,497.414 320.329,497.748 321,498.5C 326.457,517.888 334.79,535.888 346,552.5C 381.871,600.19 429.704,626.023 489.5,630C 488.263,629.768 487.263,629.268 486.5,628.5C 499.676,631.174 513.009,632.174 526.5,631.5C 525.167,657.833 525.167,684.167 526.5,710.5C 507.654,711.02 489.32,708.686 471.5,703.5C 427.45,691.109 390.95,666.442 362,629.5C 361.617,630.056 361.117,630.389 360.5,630.5C 330.985,591.449 316.985,547.116 318.5,497.5 Z"/></g>
<g><path style="opacity:1" fill="#2c739b" d="M 599.5,637.5 C 598.504,637.414 597.671,637.748 597,638.5C 585.86,672.807 563.36,696.14 529.5,708.5C 528.702,708.957 528.369,709.624 528.5,710.5C 527.833,710.5 527.167,710.5 526.5,710.5C 525.167,684.167 525.167,657.833 526.5,631.5C 548.976,626.734 568.143,616.068 584,599.5C 589.351,592.777 594.184,585.777 598.5,578.5C 599.5,598.155 599.833,617.822 599.5,637.5 Z"/></g>
<g><path style="opacity:1" fill="#58badb" d="M 599.5,637.5 C 633.835,637.333 668.168,637.5 702.5,638C 703.66,661.761 703.827,685.594 703,709.5C 644.905,710.498 586.738,710.831 528.5,710.5C 528.369,709.624 528.702,708.957 529.5,708.5C 563.36,696.14 585.86,672.807 597,638.5C 597.671,637.748 598.504,637.414 599.5,637.5 Z"/></g>
<g><path style="opacity:0.424" fill="#06365e" d="M 471.5,703.5 C 469.473,703.662 467.473,703.495 465.5,703C 422.565,690.209 387.565,666.042 360.5,630.5C 361.117,630.389 361.617,630.056 362,629.5C 390.95,666.442 427.45,691.109 471.5,703.5 Z"/></g>
</svg>
