<?xml version="1.0" encoding="UTF-8"?>
<svg version="1.1" xmlns="http://www.w3.org/2000/svg" width="500" height="500">
<path d="M0 0 C2.2728755 1.48912533 2.87085949 2.67714873 3.875 5.1875 C4.09610578 10.16237994 2.03729794 14.34032329 -0.5625 18.5 C-1.036875 18.995 -1.51125 19.49 -2 20 C-2.66 20 -3.32 20 -4 20 C-4 20.66 -4 21.32 -4 22 C-4.66 22 -5.32 22 -6 22 C-6 22.66 -6 23.32 -6 24 C-9.27209122 26.45406841 -12.00754999 28.1581138 -16 29 C-16.23074219 29.94359375 -16.46148437 30.8871875 -16.69921875 31.859375 C-18.80925189 40.24576972 -21.41111769 48.10151721 -25 56 C-23.87464844 56.19142578 -23.87464844 56.19142578 -22.7265625 56.38671875 C-20.25546652 56.94253833 -18.56686941 57.60069554 -16.375 58.8125 C-6.54767208 63.9122876 4.34133736 67.73173253 15.5 65.5 C15.995 65.335 16.49 65.17 17 65 C17 64.34 17 63.68 17 63 C15.35 62.67 13.7 62.34 12 62 C12.33 61.01 12.66 60.02 13 59 C13.99 59 14.98 59 16 59 C15.67 58.34 15.34 57.68 15 57 C15.12109375 54.90625 15.12109375 54.90625 15.4375 52.5 C15.85949355 49.25897568 15.85949355 49.25897568 16 46 C12.48127973 50.8197384 12.48127973 50.8197384 9.4375 55.9375 C8.963125 56.618125 8.48875 57.29875 8 58 C6.68 58 5.36 58 4 58 C4 57.01 4 56.02 4 55 C3.1646875 55.7425 3.1646875 55.7425 2.3125 56.5 C-0.38162983 58.24754367 -1.85375007 58.26218749 -5 58 C-5.33 57.01 -5.66 56.02 -6 55 C-6.721875 55.495 -7.44375 55.99 -8.1875 56.5 C-11.15792654 58.08422749 -12.6987658 58.3668038 -16 58 C-17.55030118 56.44969882 -17.24405099 54.96323999 -17.3125 52.8125 C-17.2605772 48.15428292 -16.12648571 45.56071983 -13 42 C-10.75 40.625 -10.75 40.625 -9 40 C-9 39.34 -9 38.68 -9 38 C-4.67265609 35.77076223 -1.71599818 36.07529447 3 37 C3.33 37.99 3.66 38.98 4 40 C4.9075 39.319375 5.815 38.63875 6.75 37.9375 C10 36 10 36 12.25 36.0625 C14 37 14 37 16 40 C17.65 38.68 19.3 37.36 21 36 C22.32 36.66 23.64 37.32 25 38 C24.53915076 40.68828723 23.98521323 43.03566221 22.9375 45.5625 C21.76068061 48.18696827 21.76068061 48.18696827 22 52 C22.66 52 23.32 52 24 52 C24.144375 51.236875 24.28875 50.47375 24.4375 49.6875 C25 47 25 47 26 44 C26.66 44 27.32 44 28 44 C28.66 42.68 29.32 41.36 30 40 C30.66 40 31.32 40 32 40 C32 39.34 32 38.68 32 38 C39.08235294 35.36470588 39.08235294 35.36470588 43 36 C44.8125 38 44.8125 38 46 40 C47.98 38.68 49.96 37.36 52 36 C55.875 37.75 55.875 37.75 57 40 C58.65 38.68 60.3 37.36 62 36 C63.32 36.66 64.64 37.32 66 38 C65.855625 38.680625 65.71125 39.36125 65.5625 40.0625 C64.93054091 43.36273082 64.45686059 46.67144426 64 50 C65.65177773 48.34822227 66.17252291 46.15144042 67 44 C67.66 44 68.32 44 69 44 C69.20625 43.4225 69.4125 42.845 69.625 42.25 C71.58448602 39.04356833 73.69125885 37.74801419 77 36 C81.45254066 35.54719926 83.24543433 35.49695622 87 38 C86.67 38.99 86.34 39.98 86 41 C85.34 41 84.68 41 84 41 C83.89042969 41.70125 83.78085937 42.4025 83.66796875 43.125 C82.67093995 49.09096094 81.31895621 54.41342368 79 60 C79.78761719 60.09796875 80.57523438 60.1959375 81.38671875 60.296875 C89.57120711 61.42042606 97.17675076 63.36237423 105 66 C105 66.66 105 67.32 105 68 C105.66 68 106.32 68 107 68 C106.67 68.99 106.34 69.98 106 71 C103.54191909 70.40709606 101.11382158 69.74978492 98.6796875 69.0625 C91.47115012 67.04943823 84.5111135 65.35346416 77 65 C76.60167969 65.67546875 76.20335937 66.3509375 75.79296875 67.046875 C75.26316406 67.93890625 74.73335938 68.8309375 74.1875 69.75 C73.66542969 70.63171875 73.14335937 71.5134375 72.60546875 72.421875 C71.1662989 74.73295067 69.76688761 76.92814275 68 79 C67.34 79 66.68 79 66 79 C66 79.66 66 80.32 66 81 C65.34 81 64.68 81 64 81 C64 81.66 64 82.32 64 83 C50.723885 90.54784203 50.723885 90.54784203 43 89 C38.84933423 87.46271638 36.13453512 85.93203837 34 82 C32.69222344 78.16385542 32.85955499 75.61193517 34.375 71.9375 C37.09634813 67.05398487 40.96504037 65.10189585 46 63 C46.72960937 62.69191406 47.45921875 62.38382812 48.2109375 62.06640625 C56.173943 59.22635821 64.63636752 59.28137511 73 59 C73 58.34 73 57.68 73 57 C72.443125 57.185625 71.88625 57.37125 71.3125 57.5625 C69 58 69 58 66.6875 57.5 C63.28274756 56.86655769 60.4006525 57.47682269 57 58 C56.67 57.67 56.34 57.34 56 57 C56.09000378 55.5163893 56.24646818 54.03651093 56.4375 52.5625 C56.85914317 49.290108 56.85914317 49.290108 57 46 C53.48127973 50.8197384 53.48127973 50.8197384 50.4375 55.9375 C49.963125 56.618125 49.48875 57.29875 49 58 C47.68 58 46.36 58 45 58 C44.67 57.34 44.34 56.68 44 56 C43.01 56.66 42.02 57.32 41 58 C38.4375 58.25 38.4375 58.25 36 58 C35.34 57.34 34.68 56.68 34 56 C33.01 56.66 32.02 57.32 31 58 C27.89143 58.23314275 25.98586231 57.99528744 23 57 C22.01 57.66 21.02 58.32 20 59 C20.433125 59.86625 20.86625 60.7325 21.3125 61.625 C22 65 22 65 20.125 68.25 C16.88970555 71.58147888 13.56567296 72.63047611 9 73 C-2.98664168 72.76948766 -14.06173844 68.12159576 -24.5625 62.6875 C-27.81060574 60.7796634 -27.81060574 60.7796634 -31 61 C-31 61.66 -31 62.32 -31 63 C-31.66 63 -32.32 63 -33 63 C-33 63.66 -33 64.32 -33 65 C-36.14969501 66.84586777 -38.48884674 67.27170838 -42.125 67.25 C-43.42824219 67.25773437 -43.42824219 67.25773437 -44.7578125 67.265625 C-47 67 -47 67 -49 65 C-49.4375 61.6875 -49.4375 61.6875 -49 58 C-46.45862841 54.84045695 -44.85377341 53.28459114 -41 52 C-39.0625 51.8671875 -39.0625 51.8671875 -37 51.875 C-36.319375 51.87242187 -35.63875 51.86984375 -34.9375 51.8671875 C-33 52 -33 52 -30 53 C-27.86927695 46.03359344 -25.88619822 39.03645577 -24 32 C-25.61068359 32.05220703 -25.61068359 32.05220703 -27.25390625 32.10546875 C-28.69008839 32.13362918 -30.12628762 32.16092691 -31.5625 32.1875 C-32.26697266 32.21263672 -32.97144531 32.23777344 -33.69726562 32.26367188 C-38.89183545 32.3354862 -42.38330659 31.41524136 -47 29 C-50.48197606 25.60965489 -51.90237525 22.88123732 -52 18 C-50.48941974 12.36050036 -48.03943083 9.54467762 -43.2734375 6.22265625 C-39.68128482 4.29079407 -36.01613993 3.53920397 -32 3 C-32 4.32 -32 5.64 -32 7 C-33.216875 7.391875 -34.43375 7.78375 -35.6875 8.1875 C-39.73490621 9.6873367 -42.1479722 11.71584678 -45 15 C-45.33 15.33 -45.66 15.66 -46 16 C-45.80599562 20.9207848 -45.80599562 20.9207848 -43.1875 24.875 C-38.63827957 27.21459908 -34.282948 27.12434152 -29.25 27.0625 C-28.55261719 27.05798828 -27.85523438 27.05347656 -27.13671875 27.04882812 C-25.42444197 27.0371002 -23.71220967 27.01916653 -22 27 C-21.89042969 26.43152344 -21.78085937 25.86304688 -21.66796875 25.27734375 C-20.30765255 18.65271446 -18.12503747 13.00968743 -15 7 C-14.34 7 -13.68 7 -13 7 C-12.34 5.68 -11.68 4.36 -11 3 C-10.34 3 -9.68 3 -9 3 C-9 2.34 -9 1.68 -9 1 C-5.72429875 -0.09190042 -3.43202271 -0.28600189 0 0 Z M-9.5625 7.25 C-13.0092236 11.80186355 -14.72969389 17.48984104 -16 23 C-15.67 23.66 -15.34 24.32 -15 25 C-7.59982757 19.84755568 -7.59982757 19.84755568 -2 13 C-1.69522629 10.24153964 -1.81080959 7.79055859 -2 5 C-5.66383068 4.37191474 -6.7262454 4.75963011 -9.5625 7.25 Z M-5 41 C-7.5841005 42.54801956 -7.5841005 42.54801956 -10 45 C-10.89055736 48.64182335 -10.89055736 48.64182335 -11 52 C-7.50126729 50.60344703 -6.29108169 49.28739516 -4.75 45.875 C-4.41484375 45.15054688 -4.0796875 44.42609375 -3.734375 43.6796875 C-3.49203125 43.12539062 -3.2496875 42.57109375 -3 42 C-3.66 41.67 -4.32 41.34 -5 41 Z M2 41 C1.46809459 42.43344 0.94984742 43.87195367 0.4375 45.3125 C0.14746094 46.11300781 -0.14257812 46.91351563 -0.44140625 47.73828125 C-1.24915625 50.1433174 -1.24915625 50.1433174 0 53 C2.97017694 52.37189827 2.97017694 52.37189827 6 51 C7.55849551 48.64653258 7.55849551 48.64653258 8 46 C7.67 45.01 7.34 44.02 7 43 C7 43.66 7 44.32 7 45 C6.01 44.67 5.02 44.34 4 44 C4 43.01 4 42.02 4 41 C3.34 41 2.68 41 2 41 Z M33.375 43.125 C30.79273348 46.25090158 30.27782686 48.01781501 30 52 C33.35498935 50.61172854 35.15050455 49.14414226 37 46 C37 44.68 37 43.36 37 42 C37.66 41.67 38.32 41.34 39 41 C35.82573677 40.68540089 35.82573677 40.68540089 33.375 43.125 Z M73.8125 42.5625 C71.39807433 45.80948625 71.6962428 48.05115643 72 52 C75.13025663 51.28098639 75.13025663 51.28098639 76.625 48.75 C77.94861918 46.10276163 78.58369888 43.91410782 79 41 C75.95882896 40.7093809 75.95882896 40.7093809 73.8125 42.5625 Z M43 43 C41.14223235 46.13498292 40.79859524 48.37471432 41 52 C43.94091587 51.81584568 43.94091587 51.81584568 47 51 C48.5596445 49.21491214 48.5596445 49.21491214 49 47 C48.67 46.01 48.34 45.02 48 44 C47.01 44.33 46.02 44.66 45 45 C45 44.34 45 43.68 45 43 C44.34 43 43.68 43 43 43 Z M-43 58 C-43.66 59.32 -44.32 60.64 -45 62 C-41.18510326 63.46726798 -38.70988378 62.43336419 -35 61 C-35 60.01 -35 59.02 -35 58 C-37.64 58 -40.28 58 -43 58 Z M43 69 C40.33316595 71.06679639 39.27037929 72.34095049 38 75.4375 C37.80215185 78.13868253 37.80215185 78.13868253 39.4375 80.75 C42.77411115 83.67970735 45.69697026 84.13750283 50 84 C56.83823831 82.80030907 61.67303656 79.58551493 66.25 74.5 C69.8704452 69.68980676 69.8704452 69.68980676 71 64 C61.47707853 62.01546314 51.36784048 64.06604654 43 69 Z " fill="#4E487F" transform="translate(287,204)"/>
<path d="M0 0 C3.39126608 2.21736628 5.48874255 4.02396304 7.375 7.625 C10.0110391 21.85961114 5.58361965 35.4118754 -1 48 C2.2660493 45.8226338 2.49087292 45.24229587 3.75 41.75 C5.77970305 36.94403646 8.37712407 33.5498374 13 31 C15.8125 31 15.8125 31 18 32 C18.66 32.66 19.32 33.32 20 34 C19.6730244 36.61580479 19.17960932 38.64078137 18 41 C17.34 41 16.68 41 16 41 C16 41.66 16 42.32 16 43 C15.195625 43.474375 14.39125 43.94875 13.5625 44.4375 C10.7081924 45.79983672 10.7081924 45.79983672 10 49 C10.9075 48.505 11.815 48.01 12.75 47.5 C16 46 16 46 20 46 C20 46.99 20 47.98 20 49 C19.34 49 18.68 49 18 49 C18 49.66 18 50.32 18 51 C13.18993795 53.40503103 10.37635604 54.62540997 5 53 C4.34 52.34 3.68 51.68 3 51 C2.01 51.99 2.01 51.99 1 53 C-2 53.25 -2 53.25 -5 53 C-5.66 52.34 -6.32 51.68 -7 51 C-7.99 51.99 -7.99 51.99 -9 53 C-12.125 53.125 -12.125 53.125 -15 53 C-14.67 53.99 -14.34 54.98 -14 56 C-12.13803054 56.92393164 -12.13803054 56.92393164 -10 57 C-9.01 56.34 -8.02 55.68 -7 55 C-6.01 55 -5.02 55 -4 55 C-4.35606691 57.58148508 -4.83328193 58.82045747 -6.625 60.75 C-9.90982887 62.4788573 -12.33644028 62.32710355 -16 62 C-20.13041029 60.62585963 -21.26888742 58.22047133 -23.1875 54.4375 C-24.77519938 50.99777997 -24.77519938 50.99777997 -27 48 C-27.226875 48.804375 -27.45375 49.60875 -27.6875 50.4375 C-28.120625 51.283125 -28.55375 52.12875 -29 53 C-31.625 53.8125 -31.625 53.8125 -34 54 C-35.3274855 50.01754349 -33.99907829 47.55210457 -32.5625 43.8125 C-32.31951172 43.15830078 -32.07652344 42.50410156 -31.82617188 41.83007812 C-31.2256707 40.21696714 -30.61390797 38.6080565 -30 37 C-30.66 37 -31.32 37 -32 37 C-32.07476562 37.56847656 -32.14953125 38.13695312 -32.2265625 38.72265625 C-33.2529853 44.75037447 -35.04940243 49.18837818 -40 53 C-43.625 54.125 -43.625 54.125 -47 54 C-49.4375 52.5625 -49.4375 52.5625 -51 51 C-51.495 51.70125 -51.99 52.4025 -52.5 53.125 C-58.86013995 60.43916094 -66.96930634 65.16818018 -76.625 66.5 C-80.83005959 65.87702821 -84.62824894 64.66450572 -88 62 C-88.7265625 59.859375 -88.7265625 59.859375 -89 58 C-89.66 58 -90.32 58 -91 58 C-91.93241231 50.55330166 -92.27227887 44.19554974 -90 37 C-89.8040625 36.33484375 -89.608125 35.6696875 -89.40625 34.984375 C-87.5881185 29.48669167 -84.70341266 24.45647429 -81 20 C-80.34 20 -79.68 20 -79 20 C-78.73832031 19.40960938 -78.47664062 18.81921875 -78.20703125 18.2109375 C-73.77062969 10.08471328 -64.28707721 6.06395658 -56 3 C-50.4605662 1.69457233 -46.93481853 2.27850969 -42 5 C-39.73283893 7.5392204 -39.99589357 8.89117972 -40.125 12.3125 C-41.47260932 17.9917107 -43.3842837 21.59971254 -47.8125 25.4375 C-51.56083919 27.27492117 -53.87564643 27.54472594 -58 27 C-59.9375 25.875 -59.9375 25.875 -61 24 C-61.54624158 20.33237794 -61.47898298 18.6741242 -59.3125 15.625 C-56.61209763 13.72741996 -55.22939919 13.64117787 -52 14 C-51.505 15.485 -51.505 15.485 -51 17 C-51.804375 17.268125 -52.60875 17.53625 -53.4375 17.8125 C-54.283125 18.204375 -55.12875 18.59625 -56 19 C-56.495 20.485 -56.495 20.485 -57 22 C-52.61560795 20.80425671 -49.72028181 19.72779359 -47 16 C-46.10407917 12.40080577 -46.10407917 12.40080577 -46 9 C-47.12719884 7.65705756 -47.12719884 7.65705756 -50.0625 7.75 C-60.62901475 8.42088983 -67.10335848 14.54271835 -74 22 C-76.30511128 24.86990947 -78.19074639 27.80085619 -80 31 C-80.61488281 31.87785156 -80.61488281 31.87785156 -81.2421875 32.7734375 C-84.1201913 37.31869867 -84.43979877 41.9024127 -84.5625 47.1875 C-84.58940918 47.877229 -84.61631836 48.56695801 -84.64404297 49.27758789 C-84.61503187 53.1402747 -84.09421308 54.8788689 -81.703125 57.953125 C-78.73412758 60.20132536 -76.83112516 60.67393221 -73.11328125 60.421875 C-67.08289647 59.21802739 -61.00938258 55.64527928 -57 51 C-51.96739727 43.59976453 -51.96739727 43.59976453 -51 35 C-51.66 34.34 -52.32 33.68 -53 33 C-58.43037723 33.20886066 -61.85453605 34.499386 -66 38 C-67.57397258 40.27080874 -68.75828789 42.51657577 -70 45 C-70.99 45 -71.98 45 -73 45 C-72.77571306 39.50496996 -71.52178017 36.52999325 -67.73828125 32.51171875 C-63.93849379 29.20718449 -60.2531549 28.10619957 -55.3125 27.6875 C-50.23169601 28.16682113 -50.23169601 28.16682113 -48 30 C-46.77231429 32.29132722 -45.90759484 34.54949394 -45 37 C-43.68 35.02 -42.36 33.04 -41 31 C-40.01 31.33 -39.02 31.66 -38 32 C-35.03 32 -32.06 32 -29 32 C-26.03 25.73 -23.06 19.46 -20 13 C-19.34 13 -18.68 13 -18 13 C-17.89171875 12.41476563 -17.7834375 11.82953125 -17.671875 11.2265625 C-16.27630753 6.60171683 -12.62259751 2.93299357 -8.5 0.5625 C-5.40004859 -0.13498907 -3.17102968 -0.45300424 0 0 Z M-12.1953125 8.65234375 C-16.16832438 13.82069904 -18.51085333 20.01685327 -21 26 C-21.40347656 26.93070313 -21.80695313 27.86140625 -22.22265625 28.8203125 C-23.11855607 31.33243361 -22.91361223 32.53324699 -22 35 C-22 34.34 -22 33.68 -22 33 C-19.36 32.34 -16.72 31.68 -14 31 C-13.67 32.98 -13.34 34.96 -13 37 C-12.34 37 -11.68 37 -11 37 C-11 36.34 -11 35.68 -11 35 C-10.22914063 34.86464844 -9.45828125 34.72929687 -8.6640625 34.58984375 C-5.63073558 33.93873116 -2.8639654 33.19584637 0 32 C1.75439855 29.07600241 1.90293232 28.2625525 2 25 C2.06445312 23.87980469 2.12890625 22.75960937 2.1953125 21.60546875 C2.61231269 13.26764489 2.61231269 13.26764489 -1 6 C-5.74019662 3.95309691 -8.50004802 5.17879514 -12.1953125 8.65234375 Z M-9 40 C-10.35835671 43.62473109 -10.35835671 43.62473109 -11 47 C-10.01 47 -9.02 47 -8 47 C-4.74148594 43.64274309 -3.24962896 40.4778371 -2 36 C-5.31091732 36 -6.69062521 37.74835958 -9 40 Z M12 36 C11.34 36.66 10.68 37.32 10 38 C10.3185177 40.10820797 10.3185177 40.10820797 11 42 C13.34287418 39.32752366 13.34287418 39.32752366 14 36 C13.34 36 12.68 36 12 36 Z M-20 37 C-21.63676257 38.9600281 -21.63676257 38.9600281 -23 41 C-19.87802522 39.6910428 -19.87802522 39.6910428 -18 37 C-18.66 37 -19.32 37 -20 37 Z M-40 38 C-42.81763407 40.81763407 -43.94608803 42.28566635 -44.25 46.3125 C-44.1675 47.199375 -44.085 48.08625 -44 49 C-40.77611813 48.06677104 -39.33984343 47.58700229 -37.625 44.625 C-36.98018152 41.91676239 -37.04587119 40.57614778 -38 38 C-38.66 38 -39.32 38 -40 38 Z M-21 45 C-20.34 46.98 -19.68 48.96 -19 51 C-18.01 51 -17.02 51 -16 51 C-16.020625 50.0925 -16.04125 49.185 -16.0625 48.25 C-16.0110245 45.57327412 -15.7784983 43.53011948 -15 41 C-17.22114466 41 -19.35878948 43.65336573 -21 45 Z " fill="#3A3170" transform="translate(212,209)"/>
<path d="M0 0 C0.99 0.66 1.98 1.32 3 2 C2.67 2.99 2.34 3.98 2 5 C1.34 5 0.68 5 0 5 C-0.10957031 5.70125 -0.21914063 6.4025 -0.33203125 7.125 C-1.32906005 13.09096094 -2.68104379 18.41342368 -5 24 C-3.81857422 24.14695312 -3.81857422 24.14695312 -2.61328125 24.296875 C5.57120711 25.42042606 13.17675076 27.36237423 21 30 C21 30.66 21 31.32 21 32 C21.66 32 22.32 32 23 32 C22.67 32.99 22.34 33.98 22 35 C19.54191909 34.40709606 17.11382158 33.74978492 14.6796875 33.0625 C7.47115012 31.04943823 0.5111135 29.35346416 -7 29 C-7.39832031 29.67546875 -7.79664063 30.3509375 -8.20703125 31.046875 C-8.73683594 31.93890625 -9.26664062 32.8309375 -9.8125 33.75 C-10.59560547 35.07257813 -10.59560547 35.07257813 -11.39453125 36.421875 C-12.8337011 38.73295067 -14.23311239 40.92814275 -16 43 C-16.66 43 -17.32 43 -18 43 C-18 43.66 -18 44.32 -18 45 C-18.66 45 -19.32 45 -20 45 C-20 45.66 -20 46.32 -20 47 C-33.276115 54.54784203 -33.276115 54.54784203 -41 53 C-45.15066577 51.46271638 -47.86546488 49.93203837 -50 46 C-51.30777656 42.16385542 -51.14044501 39.61193517 -49.625 35.9375 C-46.90365187 31.05398487 -43.03495963 29.10189585 -38 27 C-36.90558594 26.53787109 -36.90558594 26.53787109 -35.7890625 26.06640625 C-27.826057 23.22635821 -19.36363248 23.28137511 -11 23 C-10.67 21.02 -10.34 19.04 -10 17 C-10.99 16.67 -11.98 16.34 -13 16 C-13.495 12.535 -13.495 12.535 -14 9 C-14.99 9.33 -15.98 9.66 -17 10 C-17 9.34 -17 8.68 -17 8 C-16.34 8 -15.68 8 -15 8 C-14.79375 7.4225 -14.5875 6.845 -14.375 6.25 C-10.95879488 0.65984617 -6.26357347 -0.70908379 0 0 Z M-10.1875 6.5625 C-12.60192567 9.80948625 -12.3037572 12.05115643 -12 16 C-8.86974337 15.28098639 -8.86974337 15.28098639 -7.375 12.75 C-6.05138082 10.10276163 -5.41630112 7.91410782 -5 5 C-8.04117104 4.7093809 -8.04117104 4.7093809 -10.1875 6.5625 Z M-41 33 C-43.66683405 35.06679639 -44.72962071 36.34095049 -46 39.4375 C-46.19784815 42.13868253 -46.19784815 42.13868253 -44.5625 44.75 C-41.22588885 47.67970735 -38.30302974 48.13750283 -34 48 C-27.16176169 46.80030907 -22.32696344 43.58551493 -17.75 38.5 C-14.1295548 33.68980676 -14.1295548 33.68980676 -13 28 C-22.52292147 26.01546314 -32.63215952 28.06604654 -41 33 Z " fill="#4D4880" transform="translate(371,240)"/>
<path d="M0 0 C0 0.99 0 1.98 0 3 C1.2375 3.12375 1.2375 3.12375 2.5 3.25 C5.41215004 3.87403215 7.13144905 4.46859692 9.6875 5.8125 C20.58961854 11.43742045 30.91773303 12.98982146 43 14 C42.67 14.99 42.34 15.98 42 17 C24.56156852 19.75120885 24.56156852 19.75120885 18 17 C17.05640625 16.63261719 16.1128125 16.26523437 15.140625 15.88671875 C10.46847797 14.00972436 5.90941037 12.00169303 1.4375 9.6875 C-1.81060574 7.7796634 -1.81060574 7.7796634 -5 8 C-5 8.66 -5 9.32 -5 10 C-5.66 10 -6.32 10 -7 10 C-7 10.66 -7 11.32 -7 12 C-10.14969501 13.84586777 -12.48884674 14.27170838 -16.125 14.25 C-17.42824219 14.25773437 -17.42824219 14.25773437 -18.7578125 14.265625 C-21 14 -21 14 -23 12 C-23.31537716 7.66356399 -23.44897847 5.67346771 -21 2 C-14.31011116 -0.88881564 -7.15997005 -0.17875099 0 0 Z M-17 5 C-17.66 6.32 -18.32 7.64 -19 9 C-15.18510326 10.46726798 -12.70988378 9.43336419 -9 8 C-9 7.01 -9 6.02 -9 5 C-11.64 5 -14.28 5 -17 5 Z " fill="#47437F" transform="translate(261,257)"/>
<path d="M0 0 C3.39126608 2.21736628 5.48874255 4.02396304 7.375 7.625 C9.09281539 16.90120311 8.4774182 26.59073136 4 35 C3.5359375 33.7934375 3.5359375 33.7934375 3.0625 32.5625 C2.23664655 30.10919595 2.23664655 30.10919595 1 29 C0.97352454 25.22913836 1.0292421 21.47044878 1.12695312 17.70117188 C1.13791016 16.90646484 1.14886719 16.11175781 1.16015625 15.29296875 C1.17699463 14.5661792 1.19383301 13.83938965 1.21118164 13.09057617 C0.96202558 10.6240752 0.34327294 9.07884119 -1 7 C-3.76409672 5.73280028 -3.76409672 5.73280028 -7 6 C-12.08578176 9.48643723 -14.38317156 12.88850534 -16.75 18.5 C-17.04003906 19.15097656 -17.33007812 19.80195313 -17.62890625 20.47265625 C-18.44004543 22.30605302 -19.22093976 24.15274375 -20 26 C-20.39832031 26.92425781 -20.79664063 27.84851563 -21.20703125 28.80078125 C-22.16103001 31.03194677 -22.16103001 31.03194677 -21.9375 33.6875 C-21.958125 34.450625 -21.97875 35.21375 -22 36 C-22.99 36.66 -23.98 37.32 -25 38 C-25 35.69 -25 33.38 -25 31 C-25.66 30.67 -26.32 30.34 -27 30 C-25.1668733 24.00067626 -22.92678249 18.55079437 -20 13 C-19.34 13 -18.68 13 -18 13 C-17.89171875 12.41476563 -17.7834375 11.82953125 -17.671875 11.2265625 C-16.27630753 6.60171683 -12.62259751 2.93299357 -8.5 0.5625 C-5.40004859 -0.13498907 -3.17102968 -0.45300424 0 0 Z " fill="#595389" transform="translate(212,209)"/>
<path d="M0 0 C3.63 0 7.26 0 11 0 C12.28497537 3.85492611 11.4052209 5.40346836 10.0625 9.1875 C9.68222656 10.27417969 9.30195313 11.36085937 8.91015625 12.48046875 C8.60980469 13.31191406 8.30945313 14.14335937 8 15 C8.99 15 9.98 15 11 15 C10.125 18.875 10.125 18.875 9 20 C7.33382885 20.04063832 5.66611905 20.042721 4 20 C3.67 19.01 3.34 18.02 3 17 C2.278125 17.495 1.55625 17.99 0.8125 18.5 C-2.15792654 20.08422749 -3.6987658 20.3668038 -7 20 C-8.55030118 18.44969882 -8.24405099 16.96323999 -8.3125 14.8125 C-8.2605772 10.15428292 -7.12648571 7.56071983 -4 4 C-1.75 2.625 -1.75 2.625 0 2 C0 1.34 0 0.68 0 0 Z M4 3 C1.4158995 4.54801956 1.4158995 4.54801956 -1 7 C-1.89055736 10.64182335 -1.89055736 10.64182335 -2 14 C1.49873271 12.60344703 2.70891831 11.28739516 4.25 7.875 C4.58515625 7.15054688 4.9203125 6.42609375 5.265625 5.6796875 C5.50796875 5.12539062 5.7503125 4.57109375 6 4 C5.34 3.67 4.68 3.34 4 3 Z " fill="#20175F" transform="translate(278,242)"/>
<path d="M0 0 C-0.33 0.99 -0.66 1.98 -1 3 C-2.9685168 3.72178949 -4.9392131 4.43886367 -6.92578125 5.109375 C-9.97759851 6.41975981 -11.84944611 8.52360461 -14 11 C-14.33 11.33 -14.66 11.66 -15 12 C-14.80599562 16.9207848 -14.80599562 16.9207848 -12.1875 20.875 C-7.63827957 23.21459908 -3.282948 23.12434152 1.75 23.0625 C2.44738281 23.05798828 3.14476562 23.05347656 3.86328125 23.04882812 C5.57555803 23.0371002 7.28779033 23.01916653 9 23 C9.33 20.69 9.66 18.38 10 16 C10.33 16 10.66 16 11 16 C11.125 22.625 11.125 22.625 10 26 C9.01 26 8.02 26 7 26 C7 26.66 7 27.32 7 28 C4.4784979 28.08172936 1.95970083 28.14083373 -0.5625 28.1875 C-1.26697266 28.21263672 -1.97144531 28.23777344 -2.69726562 28.26367188 C-7.89183545 28.3354862 -11.38330659 27.41524136 -16 25 C-19.48197606 21.60965489 -20.90237525 18.88123732 -21 14 C-19.247857 7.45866614 -15.7367407 4.41809598 -10 1 C-6.26188597 -0.65339659 -3.88475124 -1.49413509 0 0 Z " fill="#3E3973" transform="translate(256,208)"/>
<path d="M0 0 C0.33 0 0.66 0 1 0 C1.01417969 0.95261719 1.02835937 1.90523437 1.04296875 2.88671875 C1.21521559 10.49702769 1.21521559 10.49702769 4.0625 17.375 C7.84553092 19.46774051 10.83347263 19.83176517 15 19 C22.56684235 16.33101996 28.24822484 11.3966204 33 5 C33 5.66 33 6.32 33 7 C34.32 6.67 35.64 6.34 37 6 C36.43599977 9.40597539 35.49536653 10.79949819 32.8125 12.9375 C31.85730469 13.70513672 31.85730469 13.70513672 30.8828125 14.48828125 C30.26148438 14.98714844 29.64015625 15.48601562 29 16 C27.6078125 17.299375 27.6078125 17.299375 26.1875 18.625 C21.05363371 22.4502337 15.71784507 24.62512482 9.375 25.5 C5.16994041 24.87702821 1.37175106 23.66450572 -2 21 C-2.7265625 18.859375 -2.7265625 18.859375 -3 17 C-3.66 17 -4.32 17 -5 17 C-5.19622241 12.78121808 -4.80230168 9.82989106 -3 6 C-2.34 6.66 -1.68 7.32 -1 8 C-0.67 5.36 -0.34 2.72 0 0 Z " fill="#4F4A85" transform="translate(126,250)"/>
<path d="M0 0 C1.625 1.125 1.625 1.125 2.625 3.125 C2.69450541 4.66523996 2.70952357 6.20834988 2.6875 7.75 C2.67847656 8.56726563 2.66945312 9.38453125 2.66015625 10.2265625 C2.64855469 10.85304687 2.63695312 11.47953125 2.625 12.125 C3.615 12.455 4.605 12.785 5.625 13.125 C4.75 20 4.75 20 3.625 21.125 C5.275 21.455 6.925 21.785 8.625 22.125 C7.965 22.785 7.305 23.445 6.625 24.125 C3.5 23.75 3.5 23.75 0.625 23.125 C0.295 21.805 -0.035 20.485 -0.375 19.125 C-1.365 19.125 -2.355 19.125 -3.375 19.125 C-3.230625 18.279375 -3.08625 17.43375 -2.9375 16.5625 C-2.751875 15.428125 -2.56625 14.29375 -2.375 13.125 C-2.148125 11.8875 -1.92125 10.65 -1.6875 9.375 C-1.584375 8.3025 -1.48125 7.23 -1.375 6.125 C-2.035 5.465 -2.695 4.805 -3.375 4.125 C-8.80537723 4.33386066 -12.22953605 5.624386 -16.375 9.125 C-17.94897258 11.39580874 -19.13328789 13.64157577 -20.375 16.125 C-21.365 16.125 -22.355 16.125 -23.375 16.125 C-23.15071306 10.62996996 -21.89678017 7.65499325 -18.11328125 3.63671875 C-12.95070862 -0.85297925 -6.47345294 -2.38495635 0 0 Z " fill="#4C4878" transform="translate(162.375,237.875)"/>
<path d="M0 0 C1.32 0.66 2.64 1.32 4 2 C3.855625 2.680625 3.71125 3.36125 3.5625 4.0625 C2.93054091 7.36273082 2.45686059 10.67144426 2 14 C3.17712942 12.82287058 4.33749163 11.62907108 5.5 10.4375 C8 8 8 8 9 8 C9.33 10.64 9.66 13.28 10 16 C10.99 16 11.98 16 13 16 C12.25 18.4375 12.25 18.4375 11 21 C8.59465871 22.16119925 7.29037874 22.06278459 4.6875 21.5 C1.28274756 20.86655769 -1.5993475 21.47682269 -5 22 C-5.33 21.67 -5.66 21.34 -6 21 C-5.9140625 19.00390625 -5.9140625 19.00390625 -5.625 16.5625 C-5.53476562 15.75941406 -5.44453125 14.95632812 -5.3515625 14.12890625 C-5 12 -5 12 -4 10 C-3.34 10 -2.68 10 -2 10 C-2 9.01 -2 8.02 -2 7 C-3.32 6.34 -4.64 5.68 -6 5 C-4.02 3.35 -2.04 1.7 0 0 Z " fill="#38306F" transform="translate(349,240)"/>
<path d="M0 0 C0.33 1.32 0.66 2.64 1 4 C0.34 4 -0.32 4 -1 4 C-1 5.98 -1 7.96 -1 10 C-1.33 9.01 -1.66 8.02 -2 7 C-2.66 7 -3.32 7 -4 7 C-4.07476562 7.56847656 -4.14953125 8.13695312 -4.2265625 8.72265625 C-5.24728025 14.71687128 -7.03087617 19.24231043 -12 23 C-15.875 23.9375 -15.875 23.9375 -19 24 C-19.33 23.34 -19.66 22.68 -20 22 C-18.7934375 22.0309375 -18.7934375 22.0309375 -17.5625 22.0625 C-15.06645115 22.29633621 -15.06645115 22.29633621 -14 21 C-15.65 21 -17.3 21 -19 21 C-19 20.34 -19 19.68 -19 19 C-18.34 19 -17.68 19 -17 19 C-16.67 17.68 -16.34 16.36 -16 15 C-16 16.32 -16 17.64 -16 19 C-13.13367003 17.94901234 -12.16993357 17.33137046 -10.75 14.5625 C-9.85955062 11.96513149 -9.85955062 11.96513149 -10 9 C-12.9788611 9.72403071 -12.9788611 9.72403071 -14.4375 11.5625 C-16 13 -16 13 -20 13 C-19.67 10.03 -19.34 7.06 -19 4 C-18.01 5.485 -18.01 5.485 -17 7 C-15.68 5.02 -14.36 3.04 -13 1 C-12.01 1.33 -11.02 1.66 -10 2 C-8.43881572 2.06740865 -6.8749748 2.08514456 -5.3125 2.0625 C-4.50425781 2.05347656 -3.69601563 2.04445312 -2.86328125 2.03515625 C-2.24839844 2.02355469 -1.63351563 2.01195312 -1 2 C-0.67 1.34 -0.34 0.68 0 0 Z " fill="#5D5386" transform="translate(184,239)"/>
<path d="M0 0 C1.32 0.33 2.64 0.66 4 1 C3.42652986 5.01429097 2.11954696 7.57611645 0 11 C-3.88299857 17.86992054 -3.71237113 25.29352997 -4 33 C-4.33 33 -4.66 33 -5 33 C-5.33 30.36 -5.66 27.72 -6 25 C-6.66 26.32 -7.32 27.64 -8 29 C-8.66 29 -9.32 29 -10 29 C-9.64135508 17.55922692 -8.03325167 8.47954343 0 0 Z " fill="#342E6B" transform="translate(130,232)"/>
<path d="M0 0 C0.99 0.66 1.98 1.32 3 2 C2.67 2.99 2.34 3.98 2 5 C1.34 5 0.68 5 0 5 C-0.12117188 5.75925781 -0.24234375 6.51851562 -0.3671875 7.30078125 C-0.53476562 8.29464844 -0.70234375 9.28851563 -0.875 10.3125 C-1.03742188 11.29863281 -1.19984375 12.28476563 -1.3671875 13.30078125 C-2 16 -2 16 -4 19 C-4.93423645 15.98968256 -5.04449911 15.13349732 -4 12 C-4.99 12 -5.98 12 -7 12 C-6.938125 12.9075 -6.87625 13.815 -6.8125 14.75 C-7.01672076 18.28982642 -7.64551835 19.44931155 -10 22 C-10.33 21.01 -10.66 20.02 -11 19 C-10.67 18.34 -10.34 17.68 -10 17 C-10.99 16.67 -11.98 16.34 -13 16 C-13.33 13.69 -13.66 11.38 -14 9 C-14.99 9.33 -15.98 9.66 -17 10 C-17 9.34 -17 8.68 -17 8 C-16.34 8 -15.68 8 -15 8 C-14.79375 7.4225 -14.5875 6.845 -14.375 6.25 C-10.95879488 0.65984617 -6.26357347 -0.70908379 0 0 Z M-10.1875 6.5625 C-12.60192567 9.80948625 -12.3037572 12.05115643 -12 16 C-8.86974337 15.28098639 -8.86974337 15.28098639 -7.375 12.75 C-6.05138082 10.10276163 -5.41630112 7.91410782 -5 5 C-8.04117104 4.7093809 -8.04117104 4.7093809 -10.1875 6.5625 Z " fill="#585387" transform="translate(371,240)"/>
<path d="M0 0 C1.8125 2 1.8125 2 3 4 C4.98 2.68 6.96 1.36 9 0 C10.32 0.66 11.64 1.32 13 2 C13 3.32 13 4.64 13 6 C14.32 6.33 15.64 6.66 17 7 C16.67 7.99 16.34 8.98 16 10 C14.68 10 13.36 10 12 10 C11.34 9.01 10.68 8.02 10 7 C9.4225 7.144375 8.845 7.28875 8.25 7.4375 C6.16666667 7.95833333 4.08333333 8.47916667 2 9 C2 8.34 2 7.68 2 7 C1.01 7.33 0.02 7.66 -1 8 C-1 6.35 -1 4.7 -1 3 C-1.99 2.67 -2.98 2.34 -4 2 C-3.67 3.65 -3.34 5.3 -3 7 C-3.66 7 -4.32 7 -5 7 C-5.33 7.66 -5.66 8.32 -6 9 C-6.33 8.01 -6.66 7.02 -7 6 C-8.98 6.99 -8.98 6.99 -11 8 C-11.66 6.68 -12.32 5.36 -13 4 C-12.34 4 -11.68 4 -11 4 C-11 3.34 -11 2.68 -11 2 C-3.91764706 -0.63529412 -3.91764706 -0.63529412 0 0 Z " fill="#5D588F" transform="translate(330,240)"/>
<path d="M0 0 C1 2 1 2 0.5 5.4375 C-0.26285394 8.95312924 -0.26285394 8.95312924 1 12 C2.86196946 12.92393164 2.86196946 12.92393164 5 13 C5.99 12.34 6.98 11.68 8 11 C8.99 11 9.98 11 11 11 C10.64393309 13.58148508 10.16671807 14.82045747 8.375 16.75 C4.54357854 18.76653761 0.94363848 18.49979275 -3.1875 17.4375 C-6.0354255 15.17880047 -7.72616669 12.39203612 -9 9 C-8.75 6.0625 -8.75 6.0625 -8 4 C-7.01 3.67 -6.02 3.34 -5 3 C-4.01 4.32 -3.02 5.64 -2 7 C-2 5.02 -2 3.04 -2 1 C-1.34 0.67 -0.68 0.34 0 0 Z " fill="#1F165E" transform="translate(197,253)"/>
<path d="M0 0 C0.66 0.33 1.32 0.66 2 1 C1.67 1.66 1.34 2.32 1 3 C2.98 2.67 4.96 2.34 7 2 C6.67 2.66 6.34 3.32 6 4 C5.21625 4.20625 4.4325 4.4125 3.625 4.625 C0.05252245 6.49629777 -0.32365544 8.60715115 -1.51953125 12.3203125 C-1.67808594 12.87460938 -1.83664062 13.42890625 -2 14 C-1.01 13.67 -0.02 13.34 1 13 C1 13.99 1 14.98 1 16 C2.32 16.33 3.64 16.66 5 17 C4.34 17.66 3.68 18.32 3 19 C3 18.34 3 17.68 3 17 C2.278125 17.495 1.55625 17.99 0.8125 18.5 C-2.15792654 20.08422749 -3.6987658 20.3668038 -7 20 C-8.55030118 18.44969882 -8.24405099 16.96323999 -8.3125 14.8125 C-8.2605772 10.15428292 -7.12648571 7.56071983 -4 4 C-1.75 2.625 -1.75 2.625 0 2 C0 1.34 0 0.68 0 0 Z " fill="#383069" transform="translate(278,242)"/>
<path d="M0 0 C1.65 1.32 3.3 2.64 5 4 C4.01 6.31 3.02 8.62 2 11 C5.16666667 9.16666667 5.16666667 9.16666667 7 6 C6.25 13.75 6.25 13.75 4 16 C1 16.25 1 16.25 -2 16 C-2.66 15.34 -3.32 14.68 -4 14 C-4.66 14.66 -5.32 15.32 -6 16 C-9.125 16.125 -9.125 16.125 -12 16 C-10.68 15.67 -9.36 15.34 -8 15 C-8 13.35 -8 11.7 -8 10 C-7.38640625 9.75507813 -6.7728125 9.51015625 -6.140625 9.2578125 C-3.57364433 7.74947715 -2.96142096 6.55743212 -1.75 3.875 C-1.41484375 3.15054688 -1.0796875 2.42609375 -0.734375 1.6796875 C-0.49203125 1.12539062 -0.2496875 0.57109375 0 0 Z " fill="#4C447C" transform="translate(209,246)"/>
<path d="M0 0 C0 0.66 0 1.32 0 2 C2.97 2 5.94 2 9 2 C9 2.33 9 2.66 9 3 C8.23816406 3.09796875 7.47632813 3.1959375 6.69140625 3.296875 C0.60524379 4.17826682 -4.63495722 5.37106827 -10.16015625 8.09765625 C-12 9 -12 9 -15 10 C-15.73323796 12.01508358 -15.73323796 12.01508358 -16 14 C-16.66 14 -17.32 14 -18 14 C-18 14.66 -18 15.32 -18 16 C-18.99 16 -19.98 16 -21 16 C-21.33 16.66 -21.66 17.32 -22 18 C-21.48746503 13.59219926 -20.83941146 10.46053271 -18 7 C-12.64879655 3.36244324 -6.58451067 0 0 0 Z " fill="#645E90" transform="translate(342,265)"/>
<path d="M0 0 C0.99 0.66 1.98 1.32 3 2 C5.05709596 2.24055468 5.05709596 2.24055468 7.1875 2.125 C8.445625 2.08375 9.70375 2.0425 11 2 C11 2.33 11 2.66 11 3 C9.88625 3.103125 8.7725 3.20625 7.625 3.3125 C6.42875 3.539375 5.2325 3.76625 4 4 C3.01 5.485 3.01 5.485 2 7 C2.71027344 6.91621094 3.42054688 6.83242188 4.15234375 6.74609375 C5.07144531 6.64425781 5.99054688 6.54242188 6.9375 6.4375 C8.31228516 6.28087891 8.31228516 6.28087891 9.71484375 6.12109375 C10.46894531 6.08113281 11.22304687 6.04117187 12 6 C12.33 6.33 12.66 6.66 13 7 C13.33 6.34 13.66 5.68 14 5 C15.97888961 4.27306096 17.97954558 3.60183749 20 3 C20.33 3.99 20.66 4.98 21 6 C19.35 6 17.7 6 16 6 C16 6.66 16 7.32 16 8 C15.34 8 14.68 8 14 8 C14 8.66 14 9.32 14 10 C10.85030499 11.84586777 8.51115326 12.27170838 4.875 12.25 C3.57175781 12.25773437 3.57175781 12.25773437 2.2421875 12.265625 C0 12 0 12 -2 10 C-2.31537716 5.66356399 -2.44897847 3.67346771 0 0 Z " fill="#3E3873" transform="translate(240,259)"/>
<path d="M0 0 C2 3 2 3 1.375 6.8125 C0.23183085 10.82843837 -1.39441313 13.74301642 -4 17 C-4.66 17 -5.32 17 -6 17 C-6 17.66 -6 18.32 -6 19 C-6.66 19 -7.32 19 -8 19 C-8 19.66 -8 20.32 -8 21 C-9.98 21.99 -11.96 22.98 -14 24 C-14 23.01 -14 22.02 -14 21 C-14.66 20.67 -15.32 20.34 -16 20 C-15.18595703 19.41992188 -15.18595703 19.41992188 -14.35546875 18.828125 C-13.64003906 18.30734375 -12.92460937 17.7865625 -12.1875 17.25 C-11.47980469 16.73953125 -10.77210938 16.2290625 -10.04296875 15.703125 C-7.32551846 13.43771711 -5.26799206 11.49511361 -4.62890625 7.9296875 C-4.60699219 7.25164062 -4.58507812 6.57359375 -4.5625 5.875 C-4.376875 4.59625 -4.19125 3.3175 -4 2 C-1.9375 0.5 -1.9375 0.5 0 0 Z " fill="#57538D" transform="translate(289,207)"/>
<path d="M0 0 C0.33 0 0.66 0 1 0 C1.125 6.625 1.125 6.625 0 10 C-0.99 10 -1.98 10 -3 10 C-3 10.66 -3 11.32 -3 12 C-5.5215021 12.08172936 -8.04029917 12.14083373 -10.5625 12.1875 C-11.26697266 12.21263672 -11.97144531 12.23777344 -12.69726562 12.26367188 C-17.87395467 12.335239 -21.4109381 11.4392311 -26 9 C-26.33 8.34 -26.66 7.68 -27 7 C-24.525 7.495 -24.525 7.495 -22 8 C-21.67 7.01 -21.34 6.02 -21 5 C-20.33613281 5.32742187 -19.67226562 5.65484375 -18.98828125 5.9921875 C-15.33512088 7.22423374 -11.98944958 7.21959396 -8.1875 7.125 C-7.49462891 7.11597656 -6.80175781 7.10695312 -6.08789062 7.09765625 C-4.39177605 7.07426157 -2.69584129 7.03839641 -1 7 C-0.67 4.69 -0.34 2.38 0 0 Z " fill="#433D77" transform="translate(266,224)"/>
<path d="M0 0 C0.66 0.33 1.32 0.66 2 1 C1.67 2.32 1.34 3.64 1 5 C-0.2375 5.061875 -1.475 5.12375 -2.75 5.1875 C-6.08215368 5.60549101 -6.82585257 5.83501823 -9.375 8.25 C-10.87742668 10.79256823 -12.04322888 13.20941758 -13 16 C-13.33 15.34 -13.66 14.68 -14 14 C-15.65 14.66 -17.3 15.32 -19 16 C-17.80100302 12.9168649 -16.52299523 9.93720508 -15 7 C-14.34 7 -13.68 7 -13 7 C-12.34 5.68 -11.68 4.36 -11 3 C-10.34 3 -9.68 3 -9 3 C-9 2.34 -9 1.68 -9 1 C-5.77390955 -0.07536348 -3.37822416 -0.14375422 0 0 Z " fill="#4A447F" transform="translate(287,204)"/>
<path d="M0 0 C2.25 0.9375 2.25 0.9375 4.25 2.9375 C3.9230244 5.55330479 3.42960932 7.57828137 2.25 9.9375 C1.59 9.9375 0.93 9.9375 0.25 9.9375 C0.25 10.5975 0.25 11.2575 0.25 11.9375 C-1.71466413 13.00525224 -3.71855359 14.00303465 -5.75 14.9375 C-6.41 14.6075 -7.07 14.2775 -7.75 13.9375 C-6.4470768 11.030979 -5.04126619 9.12914592 -2.75 6.9375 C-2.42 6.2775 -2.09 5.6175 -1.75 4.9375 C-5.215 6.4225 -5.215 6.4225 -8.75 7.9375 C-8.75 4.9375 -8.75 4.9375 -6.0625 2.1875 C-3.69570129 0.32427548 -3.11573819 -0.07081223 0 0 Z " fill="#5E568B" transform="translate(227.75,240.0625)"/>
<path d="M0 0 C1.24523437 0.01804687 2.49046875 0.03609375 3.7734375 0.0546875 C5.18496094 0.08949219 5.18496094 0.08949219 6.625 0.125 C6.955 1.115 7.285 2.105 7.625 3.125 C8.285 3.455 8.945 3.785 9.625 4.125 C9.295 5.445 8.965 6.765 8.625 8.125 C8.068125 7.774375 7.51125 7.42375 6.9375 7.0625 C4.00331087 5.87296387 2.57911203 6.03664294 -0.375 7.125 C-1.73520151 9.09258273 -1.73520151 9.09258273 -2.375 11.125 C-3.375 9.125 -3.375 9.125 -3.375 5.125 C-6.345 5.125 -9.315 5.125 -12.375 5.125 C-12.705 4.135 -13.035 3.145 -13.375 2.125 C-8.75130977 0.31820413 -4.94971347 -0.09339082 0 0 Z " fill="#261F6A" transform="translate(254.375,256.875)"/>
<path d="M0 0 C1.11986737 1.67980105 2.22962618 3.36685024 3.30078125 5.078125 C5.4368511 7.49409366 7.0925204 7.94610919 10.1875 8.75 C11.08855469 8.99234375 11.98960937 9.2346875 12.91796875 9.484375 C13.60503906 9.65453125 14.29210937 9.8246875 15 10 C14.67 10.99 14.34 11.98 14 13 C3.22506602 13.56489945 3.22506602 13.56489945 -1 10 C-3.1519437 6.77208445 -3.20086443 5.71599191 -3 2 C-2.01 2 -1.02 2 0 2 C0 1.34 0 0.68 0 0 Z " fill="#47437E" transform="translate(324,279)"/>
<path d="M0 0 C1.65 0.33 3.3 0.66 5 1 C6.08358516 3.73445903 6.09401878 4.76990141 4.9609375 7.54296875 C4.43757813 8.41566406 3.91421875 9.28835937 3.375 10.1875 C2.86710937 11.06792969 2.35921875 11.94835937 1.8359375 12.85546875 C-0.36564542 15.42710497 -1.68949897 15.71188472 -5 16 C-5 14.02 -5 12.04 -5 10 C-5.99 9.67 -6.98 9.34 -8 9 C-7.01 8.67 -6.02 8.34 -5 8 C-4.34 8.33 -3.68 8.66 -3 9 C-2.01 6.03 -1.02 3.06 0 0 Z " fill="#615A8E" transform="translate(337,246)"/>
<path d="M0 0 C0.125 6.625 0.125 6.625 -1 10 C-0.01 10 0.98 10 2 10 C2 11.32 2 12.64 2 14 C1.360625 14.12375 0.72125 14.2475 0.0625 14.375 C-0.618125 14.58125 -1.29875 14.7875 -2 15 C-2.33 15.66 -2.66 16.32 -3 17 C-3.66 17 -4.32 17 -5 17 C-5.33 17.66 -5.66 18.32 -6 19 C-6.66 18.67 -7.32 18.34 -8 18 C-7.74411938 15.7482505 -7.46972223 13.49859986 -7.1875 11.25 C-7.03667969 9.99703125 -6.88585937 8.7440625 -6.73046875 7.453125 C-5.76086631 2.86954984 -5.01349811 0 0 0 Z " fill="#302868" transform="translate(273,218)"/>
<path d="M0 0 C0.99 0 1.98 0 3 0 C3 2.31 3 4.62 3 7 C3.99 7.33 4.98 7.66 6 8 C5.125 14.875 5.125 14.875 4 16 C5.65 16.33 7.3 16.66 9 17 C8.34 17.66 7.68 18.32 7 19 C3.875 18.625 3.875 18.625 1 18 C0.67 16.68 0.34 15.36 0 14 C-0.99 14 -1.98 14 -3 14 C-2.28547412 9.23649415 -1.20465156 4.65798604 0 0 Z " fill="#2E2663" transform="translate(162,243)"/>
<path d="M0 0 C1.32 0.33 2.64 0.66 4 1 C3.34 5.29 2.68 9.58 2 14 C3.32 14 4.64 14 6 14 C5.6875 15.875 5.6875 15.875 5 18 C1.77208445 20.1519437 0.71599191 20.20086443 -3 20 C-3 19.34 -3 18.68 -3 18 C-2.34 18 -1.68 18 -1 18 C-1 15.69 -1 13.38 -1 11 C-1.66 11 -2.32 11 -3 11 C-2.49396008 8.83125748 -2.00016187 7.00032373 -1 5 C-0.34 5 0.32 5 1 5 C0.67 3.35 0.34 1.7 0 0 Z " fill="#382F6E" transform="translate(326,242)"/>
<path d="M0 0 C3.625 0.375 3.625 0.375 7 1 C7.33 1.99 7.66 2.98 8 4 C9.36125 2.9790625 9.36125 2.9790625 10.75 1.9375 C14 0 14 0 16.375 0.25 C16.91125 0.4975 17.4475 0.745 18 1 C18.33 2.98 18.66 4.96 19 7 C15.17679443 8.42258812 12.08718695 9.24042276 8 9 C7.34 7.02 6.68 5.04 6 3 C3.36 2.67 0.72 2.34 -2 2 C-1.34 1.34 -0.68 0.68 0 0 Z " fill="#5B5387" transform="translate(283,240)"/>
<path d="M0 0 C1.65 0 3.3 0 5 0 C5 0.99 5 1.98 5 3 C5.268125 3.763125 5.53625 4.52625 5.8125 5.3125 C6 8 6 8 4.0625 11.1875 C0.93328916 14.56948832 -2.48025913 15.60816763 -7 16 C-10 15.625 -10 15.625 -12 15 C-12 14.67 -12 14.34 -12 14 C-10.71802734 13.81824219 -10.71802734 13.81824219 -9.41015625 13.6328125 C-8.30542969 13.46523438 -7.20070313 13.29765625 -6.0625 13.125 C-4.96035156 12.96257812 -3.85820312 12.80015625 -2.72265625 12.6328125 C-1.37494141 12.31957031 -1.37494141 12.31957031 0 12 C0.33 11.34 0.66 10.68 1 10 C-0.32 9.67 -1.64 9.34 -3 9 C-1.68 8.67 -0.36 8.34 1 8 C1 7.34 1 6.68 1 6 C-0.65 5.67 -2.3 5.34 -4 5 C-3.67 4.01 -3.34 3.02 -3 2 C-2.01 2 -1.02 2 0 2 C0 1.34 0 0.68 0 0 Z " fill="#646290" transform="translate(303,261)"/>
<path d="M0 0 C6.27 0 12.54 0 19 0 C19 0.66 19 1.32 19 2 C19.66 2.33 20.32 2.66 21 3 C20.01 3.33 19.02 3.66 18 4 C18.33 4.99 18.66 5.98 19 7 C18.01 7.495 18.01 7.495 17 8 C16.34 7.67 15.68 7.34 15 7 C15 6.01 15 5.02 15 4 C9.72 3.67 4.44 3.34 -1 3 C-0.67 2.01 -0.34 1.02 0 0 Z " fill="#3C3677" transform="translate(343,264)"/>
<path d="M0 0 C3 1 3 1 4.25 2.625 C5.71167003 7.25362177 4.38955219 11.14298518 2.4375 15.4375 C1.963125 16.283125 1.48875 17.12875 1 18 C0.67 17.34 0.34 16.68 0 16 C-0.66 15.67 -1.32 15.34 -2 15 C-2 12 -2 12 -1.4375 8.4375 C-0.69466488 5.14687006 -0.69466488 5.14687006 -2 3 C-1.34 2.01 -0.68 1.02 0 0 Z " fill="#4F4983" transform="translate(167,213)"/>
<path d="M0 0 C2.97 0.495 2.97 0.495 6 1 C6.40652968 6.42039575 5.03993514 10.07015675 3 15 C2.01 14.34 1.02 13.68 0 13 C0 12.34 0 11.68 0 11 C-0.66 11 -1.32 11 -2 11 C-1.34 7.37 -0.68 3.74 0 0 Z " fill="#49407F" transform="translate(263,234)"/>
<path d="M0 0 C0.27585938 0.64453125 0.55171875 1.2890625 0.8359375 1.953125 C1.84757889 4.28770472 1.84757889 4.28770472 4.625 4.75 C5.40875 4.8325 6.1925 4.915 7 5 C7 6.65 7 8.3 7 10 C6.01 9.34 5.02 8.68 4 8 C3.773125 8.804375 3.54625 9.60875 3.3125 10.4375 C2.6628125 11.7059375 2.6628125 11.7059375 2 13 C-0.625 13.8125 -0.625 13.8125 -3 14 C-4.25955231 10.22134307 -3.48087189 8.96588214 -2.0625 5.3125 C-1.68222656 4.31863281 -1.30195313 3.32476562 -0.91015625 2.30078125 C-0.60980469 1.54152344 -0.30945313 0.78226563 0 0 Z " fill="#544C7D" transform="translate(181,249)"/>
<path d="M0 0 C0.66 0.33 1.32 0.66 2 1 C1.67 2.32 1.34 3.64 1 5 C1.66 5.33 2.32 5.66 3 6 C0.69 8.64 -1.62 11.28 -4 14 C-4.33 13.34 -4.66 12.68 -5 12 C-7.01669827 10.86649466 -7.01669827 10.86649466 -9 10 C-8.67 9.34 -8.34 8.68 -8 8 C-7.34 8 -6.68 8 -6 8 C-5.7525 7.4225 -5.505 6.845 -5.25 6.25 C-3.83316683 3.6997003 -2.12372463 1.98214299 0 0 Z " fill="#57528B" transform="translate(139,221)"/>
<path d="M0 0 C0.5775 0.37125 1.155 0.7425 1.75 1.125 C1.75 2.445 1.75 3.765 1.75 5.125 C3.07 5.455 4.39 5.785 5.75 6.125 C5.42 7.115 5.09 8.105 4.75 9.125 C3.43 9.125 2.11 9.125 0.75 9.125 C0.09 8.135 -0.57 7.145 -1.25 6.125 C-1.8275 6.269375 -2.405 6.41375 -3 6.5625 C-6.125 7.34375 -6.125 7.34375 -9.25 8.125 C-8.59 7.135 -7.93 6.145 -7.25 5.125 C-7.12625 4.444375 -7.0025 3.76375 -6.875 3.0625 C-6.25 1.125 -6.25 1.125 -4.4375 -0.25 C-2.25 -0.875 -2.25 -0.875 0 0 Z " fill="#7B74A1" transform="translate(341.25,240.875)"/>
<path d="M0 0 C-0.33 0.99 -0.66 1.98 -1 3 C-2.94345328 3.72467749 -4.8898766 4.44318815 -6.85546875 5.10546875 C-10.16412014 6.48558017 -12.3813557 8.57775403 -15 11 C-15 9.68 -15 8.36 -15 7 C-15.66 6.67 -16.32 6.34 -17 6 C-6.04569892 -2.32526882 -6.04569892 -2.32526882 0 0 Z " fill="#585687" transform="translate(256,208)"/>
<path d="M0 0 C5.94 0 11.88 0 18 0 C17.67 0.99 17.34 1.98 17 3 C11.72 3.66 6.44 4.32 1 5 C1.33 4.01 1.66 3.02 2 2 C1.34 1.34 0.68 0.68 0 0 Z " fill="#282568" transform="translate(286,271)"/>
<path d="M0 0 C1.23102992 3.69308976 0.87175152 6.88050712 0.5625 10.6875 C0.51029297 11.38939453 0.45808594 12.09128906 0.40429688 12.81445312 C0.27492135 14.54338054 0.13817469 16.27175355 0 18 C-0.33 18 -0.66 18 -1 18 C-1.33 15.36 -1.66 12.72 -2 10 C-2.66 11.32 -3.32 12.64 -4 14 C-4.66 14 -5.32 14 -6 14 C-5.85831863 12.56208484 -5.71148957 11.1246763 -5.5625 9.6875 C-5.48128906 8.88699219 -5.40007812 8.08648437 -5.31640625 7.26171875 C-5 5 -5 5 -4 2 C-2.68 2 -1.36 2 0 2 C0 1.34 0 0.68 0 0 Z " fill="#1A1451" transform="translate(126,247)"/>
<path d="M0 0 C1.41681634 0.31182069 2.83344651 0.62448737 4.25 0.9375 C5.43335938 1.19853516 5.43335938 1.19853516 6.640625 1.46484375 C8.76878703 1.947556 10.88532842 2.46163178 13 3 C13 3.66 13 4.32 13 5 C13.66 5 14.32 5 15 5 C14.67 5.99 14.34 6.98 14 8 C8.66666667 6.66666667 3.33333333 5.33333333 -2 4 C-1.34 2.68 -0.68 1.36 0 0 Z " fill="#373368" transform="translate(379,267)"/>
<path d="M0 0 C1.32 0.33 2.64 0.66 4 1 C3.51887377 5.16976064 1.18811912 8.39300639 -2 11 C-5.8125 11.875 -5.8125 11.875 -9 12 C-9.33 11.34 -9.66 10.68 -10 10 C-9.195625 10.020625 -8.39125 10.04125 -7.5625 10.0625 C-5.06645115 10.29633621 -5.06645115 10.29633621 -4 9 C-5.65 9 -7.3 9 -9 9 C-9 8.34 -9 7.68 -9 7 C-8.34 7 -7.68 7 -7 7 C-6.67 5.68 -6.34 4.36 -6 3 C-6 4.32 -6 5.64 -6 7 C-3.00675737 5.9024777 -2.15389099 5.32317108 -0.75 2.375 C-0.37875 1.199375 -0.37875 1.199375 0 0 Z " fill="#676394" transform="translate(174,251)"/>
<path d="M0 0 C0.33 1.32 0.66 2.64 1 4 C1.99 4 2.98 4 4 4 C4 7.63563409 3.17457267 9.12645755 1 12 C-0.32 12 -1.64 12 -3 12 C-3 11.01 -3 10.02 -3 9 C-3.66 9 -4.32 9 -5 9 C-5 8.34 -5 7.68 -5 7 C-5.66 6.67 -6.32 6.34 -7 6 C-6 5 -6 5 -3.4375 4.9375 C-2.2309375 4.9684375 -2.2309375 4.9684375 -1 5 C-0.67 3.35 -0.34 1.7 0 0 Z " fill="#615B8E" transform="translate(294,250)"/>
<path d="M0 0 C0 0.66 0 1.32 0 2 C2.97 2 5.94 2 9 2 C9 2.33 9 2.66 9 3 C8.23816406 3.12117188 7.47632813 3.24234375 6.69140625 3.3671875 C0.40472436 4.38749792 -5.79770268 5.55279729 -12 7 C-10.56094026 3.53480142 -10.13616521 3.06932047 -6.5625 1.25 C-3 0 -3 0 0 0 Z " fill="#4C4983" transform="translate(342,265)"/>
<path d="M0 0 C0.33 2.64 0.66 5.28 1 8 C1.99 8 2.98 8 4 8 C3.34 9.32 2.68 10.64 2 12 C1.34 11.67 0.68 11.34 0 11 C-0.99 11.33 -1.98 11.66 -3 12 C-3 11.34 -3 10.68 -3 10 C-3.99 9.67 -4.98 9.34 -6 9 C-3.83333333 0 -3.83333333 0 0 0 Z " fill="#241B5D" transform="translate(358,248)"/>
<path d="M0 0 C1.65 0 3.3 0 5 0 C4.67 3.63 4.34 7.26 4 11 C2.02 11 0.04 11 -2 11 C-1.85892253 9.54119891 -1.71197585 8.08296449 -1.5625 6.625 C-1.48128906 5.81289062 -1.40007812 5.00078125 -1.31640625 4.1640625 C-1 2 -1 2 0 0 Z " fill="#3C346C" transform="translate(304,250)"/>
<path d="M0 0 C0.33 0.66 0.66 1.32 1 2 C1.66 2 2.32 2 3 2 C3 4.31 3 6.62 3 9 C0 10 0 10 -3 10 C-3.33 10.33 -3.66 10.66 -4 11 C-5.66617115 11.04063832 -7.33388095 11.042721 -9 11 C-7.68 10.67 -6.36 10.34 -5 10 C-5.103125 9.278125 -5.20625 8.55625 -5.3125 7.8125 C-4.87550935 3.87958411 -2.89917803 2.53678077 0 0 Z " fill="#413A7A" transform="translate(322,251)"/>
<path d="M0 0 C0.33 0.99 0.66 1.98 1 3 C1.66 3.33 2.32 3.66 3 4 C2.01 4 1.02 4 0 4 C0.66 4.33 1.32 4.66 2 5 C1.67 7.97 1.34 10.94 1 14 C-0.65 14 -2.3 14 -4 14 C-4 12.35 -4 10.7 -4 9 C-4.66 9 -5.32 9 -6 9 C-6 8.34 -6 7.68 -6 7 C-4.35 7 -2.7 7 -1 7 C-0.67 4.69 -0.34 2.38 0 0 Z " fill="#2D2361" transform="translate(214,235)"/>
<path d="M0 0 C0.33 1.32 0.66 2.64 1 4 C-0.65 4 -2.3 4 -4 4 C-4 4.66 -4 5.32 -4 6 C-3.34 6.33 -2.68 6.66 -2 7 C-3.423125 7.8353125 -3.423125 7.8353125 -4.875 8.6875 C-8.08878787 11.06570302 -8.95565118 12.24034426 -10 16 C-10.99 14.68 -11.98 13.36 -13 12 C-12.01 11.01 -11.02 10.02 -10 9 C-10.33 8.01 -10.66 7.02 -11 6 C-7.14243493 3.84694043 -4.44870215 2.60746746 0 3 C0 2.01 0 1.02 0 0 Z " fill="#72689A" transform="translate(212,238)"/>
<path d="M0 0 C-1.49128001 3.79598549 -3.65733441 5.71720399 -7 8 C-7.99 8 -8.98 8 -10 8 C-10.33 7.01 -10.66 6.02 -11 5 C-7.49911384 -0.07024892 -5.989492 -1.41856389 0 0 Z " fill="#36306C" transform="translate(150,218)"/>
<path d="M0 0 C0.66 0.66 1.32 1.32 2 2 C1.01 2.99 0.02 3.98 -1 5 C-0.4740625 6.6396875 -0.4740625 6.6396875 0.0625 8.3125 C1 12 1 12 0 15 C-1.32 15 -2.64 15 -4 15 C-3.979375 13.9275 -3.95875 12.855 -3.9375 11.75 C-3.9857984 8.85209576 -4.13155885 6.71387859 -5 4 C-3.35 2.68 -1.7 1.36 0 0 Z " fill="#22175C" transform="translate(201,246)"/>
<path d="M0 0 C0.33 0.66 0.66 1.32 1 2 C2.32 1.67 3.64 1.34 5 1 C4.43206678 4.47575128 3.33831755 6.02496366 0.6875 8.3125 C0.09324219 8.84488281 -0.50101563 9.37726563 -1.11328125 9.92578125 C-3 11 -3 11 -7 10 C-3.535 5.05 -3.535 5.05 0 0 Z " fill="#5D5A90" transform="translate(158,255)"/>
<path d="M0 0 C0.33 0 0.66 0 1 0 C1.05402274 2.10388569 1.09280256 4.20816714 1.125 6.3125 C1.14820313 7.48425781 1.17140625 8.65601563 1.1953125 9.86328125 C1 13 1 13 -1 16 C-1 15.01 -1 14.02 -1 13 C-1.66 13 -2.32 13 -3 13 C-3 9.04 -3 5.08 -3 1 C-2.01 1.495 -2.01 1.495 -1 2 C-0.67 1.34 -0.34 0.68 0 0 Z " fill="#1F1956" transform="translate(218,221)"/>
<path d="M0 0 C4.75 0.75 4.75 0.75 7 3 C6.6730244 5.61580479 6.17960932 7.64078137 5 10 C4.01 9.67 3.02 9.34 2 9 C2 7.35 2 5.7 2 4 C1.01 4 0.02 4 -1 4 C-0.67 2.68 -0.34 1.36 0 0 Z " fill="#3E3673" transform="translate(225,240)"/>
<path d="M0 0 C0.66 0.33 1.32 0.66 2 1 C1.67 2.32 1.34 3.64 1 5 C-1.97 5 -4.94 5 -8 5 C-8.33 3.68 -8.66 2.36 -9 1 C-5.77390955 -0.07536348 -3.37822416 -0.14375422 0 0 Z " fill="#534B82" transform="translate(287,204)"/>
<path d="M0 0 C-0.875 4.75 -0.875 4.75 -2 7 C-1.34 7.33 -0.68 7.66 0 8 C-0.8971875 8.1546875 -0.8971875 8.1546875 -1.8125 8.3125 C-4.28243264 9.08876455 -5.32251235 10.07088921 -7 12 C-7 8.53993431 -6.67904468 5.39522342 -6 2 C-3 0 -3 0 0 0 Z " fill="#302665" transform="translate(222,247)"/>
<path d="M0 0 C0.33 1.32 0.66 2.64 1 4 C-0.2065625 4.7734375 -0.2065625 4.7734375 -1.4375 5.5625 C-4.66447078 8.63205757 -4.74896257 10.64868459 -5 15 C-5.33 15 -5.66 15 -6 15 C-6.33 12.69 -6.66 10.38 -7 8 C-7.99 8.33 -8.98 8.66 -10 9 C-10 8.34 -10 7.68 -10 7 C-9.34 7 -8.68 7 -8 7 C-7.7525 6.401875 -7.505 5.80375 -7.25 5.1875 C-5.55294333 2.21765083 -3.56508774 0 0 0 Z " fill="#696294" transform="translate(364,241)"/>
<path d="M0 0 C2.05145046 1.57803881 2.28911682 2.73087612 2.625 5.25 C0.75 5.875 0.75 5.875 -1.375 6.25 C-2.035 5.59 -2.695 4.93 -3.375 4.25 C-3.375 3.26 -3.375 2.27 -3.375 1.25 C-4.2825 1.45625 -5.19 1.6625 -6.125 1.875 C-9.48527897 2.2627245 -10.61575815 2.05411967 -13.375 0.25 C-8.96711469 -1.1605233 -4.43053598 -1.39911662 0 0 Z " fill="#5B5186" transform="translate(162.375,237.75)"/>
<path d="M0 0 C1.32 1.32 2.64 2.64 4 4 C-2.435 4.495 -2.435 4.495 -9 5 C-9.33 4.34 -9.66 3.68 -10 3 C-8.05861972 -0.88276057 -3.8576575 -0.39363852 0 0 Z " fill="#403A75" transform="translate(212,209)"/>
<path d="M0 0 C0.66 0.99 1.32 1.98 2 3 C2.99 2.01 3.98 1.02 5 0 C5 0.99 5 1.98 5 3 C6.65 3 8.3 3 10 3 C9.67 3.66 9.34 4.32 9 5 C8.01 5.33 7.02 5.66 6 6 C5.2884375 6.7734375 5.2884375 6.7734375 4.5625 7.5625 C3 9 3 9 -1 9 C-0.67 6.03 -0.34 3.06 0 0 Z " fill="#746D9A" transform="translate(165,243)"/>
<path d="M0 0 C1.32 0.66 2.64 1.32 4 2 C3.44271087 5.34373475 2.64826111 8.03312999 1 11 C0.938125 10.38125 0.87625 9.7625 0.8125 9.125 C0.171081 6.72238859 0.171081 6.72238859 -2.5625 5.75 C-3.366875 5.5025 -4.17125 5.255 -5 5 C-3.35 3.35 -1.7 1.7 0 0 Z " fill="#372D6F" transform="translate(349,240)"/>
<path d="M0 0 C0.99 0.33 1.98 0.66 3 1 C2.25 7.75 2.25 7.75 0 10 C0 9.34 0 8.68 0 8 C-1.32 8 -2.64 8 -4 8 C-3.67 6.35 -3.34 4.7 -3 3 C-2.34 3 -1.68 3 -1 3 C-0.67 2.01 -0.34 1.02 0 0 Z " fill="#51497C" transform="translate(316,245)"/>
<path d="M0 0 C0.33 1.32 0.66 2.64 1 4 C1.99 3.67 2.98 3.34 4 3 C4 3.99 4 4.98 4 6 C5.32 6.33 6.64 6.66 8 7 C7.34 7.66 6.68 8.32 6 9 C6 8.34 6 7.68 6 7 C5.278125 7.495 4.55625 7.99 3.8125 8.5 C0.85151341 10.07919285 -0.71253029 10.28178312 -4 10 C-3.34 9.67 -2.68 9.34 -2 9 C-2 8.34 -2 7.68 -2 7 C-1.34 6.34 -0.68 5.68 0 5 C0.16687448 2.41645782 0.16687448 2.41645782 0 0 Z " fill="#615C8D" transform="translate(275,252)"/>
<path d="M0 0 C0.66 0.33 1.32 0.66 2 1 C1.34 3.97 0.68 6.94 0 10 C-1.65 10.33 -3.3 10.66 -5 11 C-4.125 6.25 -4.125 6.25 -3 4 C-2.34 4 -1.68 4 -1 4 C-0.67 2.68 -0.34 1.36 0 0 Z " fill="#2D2565" transform="translate(338,250)"/>
<path d="M0 0 C0.33 0.66 0.66 1.32 1 2 C0.34 2 -0.32 2 -1 2 C-1 3.65 -1 5.3 -1 7 C-2.65 7.66 -4.3 8.32 -6 9 C-7 7 -7 7 -6.0625 3.875 C-5.5365625 2.451875 -5.5365625 2.451875 -5 1 C-3.35 0.67 -1.7 0.34 0 0 Z " fill="#1E1558" transform="translate(301,247)"/>
<path d="M0 0 C2.97 0 5.94 0 9 0 C9.33 0.99 9.66 1.98 10 3 C9.67 3.66 9.34 4.32 9 5 C7.68 5 6.36 5 5 5 C4.67 5.66 4.34 6.32 4 7 C4.33 5.35 4.66 3.7 5 2 C3.02 2.33 1.04 2.66 -1 3 C-0.67 2.01 -0.34 1.02 0 0 Z " fill="#22175D" transform="translate(280,242)"/>
<path d="M0 0 C1.65 0 3.3 0 5 0 C5 2.33333333 5 4.66666667 5 7 C4.34 7 3.68 7 3 7 C3 6.34 3 5.68 3 5 C1.02 5.33 -0.96 5.66 -3 6 C-3 4.68 -3 3.36 -3 2 C-2.01 2 -1.02 2 0 2 C0 1.34 0 0.68 0 0 Z " fill="#564B86" transform="translate(303,261)"/>
<path d="M0 0 C0.66 0.99 1.32 1.98 2 3 C0.35 3 -1.3 3 -3 3 C-3 3.66 -3 4.32 -3 5 C-3.66 5 -4.32 5 -5 5 C-5 5.66 -5 6.32 -5 7 C-6.98 7.66 -8.96 8.32 -11 9 C-11 8.01 -11 7.02 -11 6 C-11.66 5.34 -12.32 4.68 -13 4 C-11.0085944 3.61866701 -9.00720923 3.28674418 -7 3 C-6.67 3.33 -6.34 3.66 -6 4 C-5.67 3.34 -5.34 2.68 -5 2 C-3.35636866 1.27840576 -1.68949614 0.60648579 0 0 Z " fill="#6B679B" transform="translate(259,262)"/>
<path d="M0 0 C0.7425 0.309375 1.485 0.61875 2.25 0.9375 C7.44702225 2.40998964 12.62487263 2.66949055 18 3 C18 3.33 18 3.66 18 4 C15.87506859 4.02693575 13.75004088 4.04636628 11.625 4.0625 C10.44164062 4.07410156 9.25828125 4.08570313 8.0390625 4.09765625 C5 4 5 4 3 3 C3 3.99 3 4.98 3 6 C0.125 5.6875 0.125 5.6875 -3 5 C-3.66 4.01 -4.32 3.02 -5 2 C-2.525 2.495 -2.525 2.495 0 3 C0 2.01 0 1.02 0 0 Z " fill="#7976A1" transform="translate(244,229)"/>
<path d="M0 0 C0.33 0.66 0.66 1.32 1 2 C1.99 2 2.98 2 4 2 C3.9129995 3.62600941 3.8048219 5.25089678 3.6875 6.875 C3.62949219 7.77992188 3.57148438 8.68484375 3.51171875 9.6171875 C3 12 3 12 0 14 C0 11.69 0 9.38 0 7 C-0.66 6.67 -1.32 6.34 -2 6 C-1.34 4.02 -0.68 2.04 0 0 Z " fill="#645C8F" transform="translate(187,233)"/>
<path d="M0 0 C1.65 0 3.3 0 5 0 C5 0.66 5 1.32 5 2 C6.32 2.33 7.64 2.66 9 3 C3.4477112 5.8352113 -0.80112515 6.37952295 -7 6 C-7 5.67 -7 5.34 -7 5 C-4.36 5 -1.72 5 1 5 C0.67 3.35 0.34 1.7 0 0 Z " fill="#72709E" transform="translate(337,287)"/>
<path d="M0 0 C2.97 0 5.94 0 9 0 C9.33 0.99 9.66 1.98 10 3 C9.67 3.33 9.34 3.66 9 4 C7.30858344 3.91036938 5.62040398 3.75422324 3.9375 3.5625 C2.55884766 3.40974609 2.55884766 3.40974609 1.15234375 3.25390625 C0.44207031 3.17011719 -0.26820313 3.08632813 -1 3 C-0.67 2.01 -0.34 1.02 0 0 Z " fill="#3C3769" transform="translate(370,266)"/>
<path d="M0 0 C0.33 0.66 0.66 1.32 1 2 C-2.03525486 4.02350324 -3.19426202 4.32124018 -6.6875 4.625 C-7.49574219 4.69976562 -8.30398437 4.77453125 -9.13671875 4.8515625 C-10.05904297 4.92503906 -10.05904297 4.92503906 -11 5 C-11.33 4.01 -11.66 3.02 -12 2 C-7.82262526 0.40861915 -4.46839215 -0.21278058 0 0 Z " fill="#1C1557" transform="translate(253,257)"/>
<path d="M0 0 C0.66 0 1.32 0 2 0 C2 0.66 2 1.32 2 2 C3.32 2 4.64 2 6 2 C5.125 5.875 5.125 5.875 4 7 C2.33382885 7.04063832 0.66611905 7.042721 -1 7 C-0.67 4.69 -0.34 2.38 0 0 Z " fill="#37326E" transform="translate(283,255)"/>
<path d="M0 0 C0.66 0.33 1.32 0.66 2 1 C1.67 1.66 1.34 2.32 1 3 C2.98 2.67 4.96 2.34 7 2 C6 4 6 4 3.625 4.875 C0.68498901 6.13500471 -0.31463588 7.33889875 -2 10 C-2.12375 9.360625 -2.2475 8.72125 -2.375 8.0625 C-2.684375 7.0415625 -2.684375 7.0415625 -3 6 C-3.66 5.67 -4.32 5.34 -5 5 C-3.625 3.5 -3.625 3.5 -2 2 C-1.34 2 -0.68 2 0 2 C0 1.34 0 0.68 0 0 Z " fill="#736C9B" transform="translate(278,242)"/>
<path d="M0 0 C0.12375 0.969375 0.2475 1.93875 0.375 2.9375 C0.58125 3.948125 0.7875 4.95875 1 6 C1.66 6.33 2.32 6.66 3 7 C2.01 7.66 1.02 8.32 0 9 C-0.33 7.02 -0.66 5.04 -1 3 C-3.31 3.33 -5.62 3.66 -8 4 C-8 3.34 -8 2.68 -8 2 C-4.91190305 0.23537317 -3.76687864 0 0 0 Z " fill="#6A628D" transform="translate(198,240)"/>
<path d="M0 0 C0.226875 0.639375 0.45375 1.27875 0.6875 1.9375 C1.85250896 4.27193661 1.85250896 4.27193661 4.625 4.75 C5.40875 4.8325 6.1925 4.915 7 5 C7 6.65 7 8.3 7 10 C6.01 9.34 5.02 8.68 4 8 C3.34 8.66 2.68 9.32 2 10 C2 8.68 2 7.36 2 6 C0.68 6.33 -0.64 6.66 -2 7 C-1.34 4.69 -0.68 2.38 0 0 Z " fill="#665E8D" transform="translate(181,249)"/>
<path d="M0 0 C1.65 1.32 3.3 2.64 5 4 C3.00045871 6.99931194 2.26204729 7.81380099 -1 9 C-1.99 8.67 -2.98 8.34 -4 8 C-2.68 5.36 -1.36 2.72 0 0 Z " fill="#5F578A" transform="translate(209,246)"/>
<path d="M0 0 C3.3 0 6.6 0 10 0 C10 0.66 10 1.32 10 2 C6 3.33333333 2 4.66666667 -2 6 C-2 4.68 -2 3.36 -2 2 C-1.34 2 -0.68 2 0 2 C0 1.34 0 0.68 0 0 Z " fill="#3E3670" transform="translate(149,239)"/>
<path d="M0 0 C2.38564077 0.57584432 4.66682784 1.22227595 7 2 C7 3.32 7 4.64 7 6 C6.38125 6.12375 5.7625 6.2475 5.125 6.375 C2.80879168 6.87197356 2.80879168 6.87197356 1 9 C0.06934867 6.39417629 -0.14917407 5.35801776 0.9375 2.75 C1.288125 2.1725 1.63875 1.595 2 1 C1.34 0.67 0.68 0.34 0 0 Z " fill="#3F3A78" transform="translate(268,226)"/>
<path d="M0 0 C0.99 0.99 1.98 1.98 3 3 C3.99 2.67 4.98 2.34 6 2 C5.67 4.31 5.34 6.62 5 9 C4.01 9 3.02 9 2 9 C1.67 8.01 1.34 7.02 1 6 C0.34 6 -0.32 6 -1 6 C-0.67 4.02 -0.34 2.04 0 0 Z " fill="#534D82" transform="translate(262,239)"/>
<path d="M0 0 C2.25 0.25 2.25 0.25 4 1 C4.33 2.98 4.66 4.96 5 7 C4.01 7.495 4.01 7.495 3 8 C2.67 6.68 2.34 5.36 2 4 C0.02 4 -1.96 4 -4 4 C-2.25 1.9375 -2.25 1.9375 0 0 Z " fill="#686292" transform="translate(297,240)"/>
<path d="M0 0 C0.33 0.66 0.66 1.32 1 2 C0.67 2.66 0.34 3.32 0 4 C1.32 4.33 2.64 4.66 4 5 C4.33 4.34 4.66 3.68 5 3 C4.67 4.32 4.34 5.64 4 7 C2.02 7.33 0.04 7.66 -2 8 C-2.33 8.99 -2.66 9.98 -3 11 C-2.44894091 7.0507432 -1.61064629 3.65079826 0 0 Z " fill="#6C6697" transform="translate(124,241)"/>
<path d="M0 0 C0.66 0 1.32 0 2 0 C3.32 2.31 4.64 4.62 6 7 C2.23312136 7 1.08809695 6.76462683 -2 5 C-1.34 4.67 -0.68 4.34 0 4 C0 2.68 0 1.36 0 0 Z " fill="#302D68" transform="translate(239,225)"/>
<path d="M0 0 C0 0.66 0 1.32 0 2 C0.99 2.66 1.98 3.32 3 4 C-1.38430311 6.07036536 -1.38430311 6.07036536 -4.1875 5.75 C-6 5 -6 5 -8 3 C-2.25 0 -2.25 0 0 0 Z " fill="#5D5891" transform="translate(155,213)"/>
<path d="M0 0 C3.63 0 7.26 0 11 0 C10.67 0.99 10.34 1.98 10 3 C7.36 3.33 4.72 3.66 2 4 C1.34 2.68 0.68 1.36 0 0 Z " fill="#363271" transform="translate(293,271)"/>
<path d="M0 0 C1.485 0.99 1.485 0.99 3 2 C5.05709596 2.24055468 5.05709596 2.24055468 7.1875 2.125 C8.445625 2.08375 9.70375 2.0425 11 2 C11 2.33 11 2.66 11 3 C9.88625 3.103125 8.7725 3.20625 7.625 3.3125 C6.42875 3.539375 5.2325 3.76625 4 4 C3.01 5.485 3.01 5.485 2 7 C2.99 7.33 3.98 7.66 5 8 C4.01 8 3.02 8 2 8 C1.67 8.66 1.34 9.32 1 10 C0.63883954 8.5225254 0.28624952 7.04295325 -0.0625 5.5625 C-0.25972656 4.73878906 -0.45695313 3.91507812 -0.66015625 3.06640625 C-0.82837891 2.04353516 -0.82837891 2.04353516 -1 1 C-0.67 0.67 -0.34 0.34 0 0 Z " fill="#817DAB" transform="translate(240,259)"/>
<path d="M0 0 C1 2 1 2 0.5 5.4375 C-0.26285394 8.95312924 -0.26285394 8.95312924 1 12 C1.66 12.66 2.32 13.32 3 14 C2.01 14.33 1.02 14.66 0 15 C-2.68710833 11.66798567 -3.20973572 9.40111332 -2.8125 5.25 C-2.51953125 2.890625 -2.51953125 2.890625 -2 1 C-1.34 0.67 -0.68 0.34 0 0 Z " fill="#7C78A8" transform="translate(197,253)"/>
<path d="M0 0 C0.99 1.32 1.98 2.64 3 4 C1.02 5.32 -0.96 6.64 -3 8 C-3 7.01 -3 6.02 -3 5 C-3.99 5 -4.98 5 -6 5 C-4.62308038 2.24616077 -2.63279958 1.48516899 0 0 Z " fill="#676196" transform="translate(193,247)"/>
<path d="M0 0 C-1.47692308 4.67692308 -1.47692308 4.67692308 -4.125 6.3125 C-5.053125 6.6528125 -5.053125 6.6528125 -6 7 C-6.66 5.68 -7.32 4.36 -8 3 C-7.34 3 -6.68 3 -6 3 C-6 2.34 -6 1.68 -6 1 C-3 0 -3 0 0 0 Z " fill="#575185" transform="translate(325,241)"/>
<path d="M0 0 C3.375 -0.125 3.375 -0.125 7 0 C7.66 0.66 8.32 1.32 9 2 C8.67 2.66 8.34 3.32 8 4 C5.36 4 2.72 4 0 4 C0 2.66666667 0 1.33333333 0 0 Z " fill="#161559" transform="translate(330,288)"/>
<path d="M0 0 C3.96 0.33 7.92 0.66 12 1 C12 1.33 12 1.66 12 2 C8.92382812 2.29296875 8.92382812 2.29296875 5.84765625 2.5859375 C5.23792969 2.72257812 4.62820312 2.85921875 4 3 C3.67 3.66 3.34 4.32 3 5 C1.35 4.67 -0.3 4.34 -2 4 C-2 3.34 -2 2.68 -2 2 C-1.34 2 -0.68 2 0 2 C0 1.34 0 0.68 0 0 Z " fill="#36316E" transform="translate(129,269)"/>
<path d="M0 0 C1.2065625 0.0309375 1.2065625 0.0309375 2.4375 0.0625 C2.1075 1.0525 1.7775 2.0425 1.4375 3.0625 C2.4275 3.3925 3.4175 3.7225 4.4375 4.0625 C4.4375 5.0525 4.4375 6.0425 4.4375 7.0625 C3.1175 7.0625 1.7975 7.0625 0.4375 7.0625 C0.4375 6.0725 0.4375 5.0825 0.4375 4.0625 C-0.2225 4.0625 -0.8825 4.0625 -1.5625 4.0625 C-1.5625 3.4025 -1.5625 2.7425 -1.5625 2.0625 C-2.2225 1.7325 -2.8825 1.4025 -3.5625 1.0625 C-2.5625 0.0625 -2.5625 0.0625 0 0 Z " fill="#757397" transform="translate(290.5625,254.9375)"/>
<path d="M0 0 C2.02558881 3.34939881 2.21738987 5.86962551 2.125 9.75 C2.10695312 10.73484375 2.08890625 11.7196875 2.0703125 12.734375 C2.03550781 13.85585937 2.03550781 13.85585937 2 15 C1.67 15 1.34 15 1 15 C0.67 12.36 0.34 9.72 0 7 C-0.99 7.495 -0.99 7.495 -2 8 C-2.6875 6.25 -2.6875 6.25 -3 4 C-1.5625 1.75 -1.5625 1.75 0 0 Z " fill="#636093" transform="translate(218,216)"/>
<path d="M0 0 C0.66 0.33 1.32 0.66 2 1 C2 1.66 2 2.32 2 3 C1.01 3 0.02 3 -1 3 C-0.938125 3.9075 -0.87625 4.815 -0.8125 5.75 C-1.01672076 9.28982642 -1.64551835 10.44931155 -4 13 C-4.33 12.01 -4.66 11.02 -5 10 C-4.67 9.34 -4.34 8.68 -4 8 C-4.66 7.67 -5.32 7.34 -6 7 C-5.01 6.67 -4.02 6.34 -3 6 C-1.84478498 3.52869082 -1.84478498 3.52869082 -1 1 C-0.67 0.67 -0.34 0.34 0 0 Z " fill="#807BA7" transform="translate(365,249)"/>
<path d="M0 0 C1.98 0.495 1.98 0.495 4 1 C4 1.99 4 2.98 4 4 C3.01 4.495 3.01 4.495 2 5 C1.34786708 7.02463255 1.34786708 7.02463255 1 9 C0.34 9 -0.32 9 -1 9 C-0.67 6.03 -0.34 3.06 0 0 Z " fill="#36316A" transform="translate(121,252)"/>
<path d="M0 0 C1.98 0 3.96 0 6 0 C6.33 1.98 6.66 3.96 7 6 C6.01 6.33 5.02 6.66 4 7 C3.67 5.35 3.34 3.7 3 2 C2.01 1.67 1.02 1.34 0 1 C0 0.67 0 0.34 0 0 Z " fill="#1D1259" transform="translate(191,243)"/>
<path d="M0 0 C0.33 0.66 0.66 1.32 1 2 C0.34 2 -0.32 2 -1 2 C-1 3.65 -1 5.3 -1 7 C-3.07553648 7.5534764 -4.84365964 8 -7 8 C-5.50902342 4.2047869 -3.24299151 2.38957269 0 0 Z " fill="#676296" transform="translate(148,239)"/>
<path d="M0 0 C1.32 0.66 2.64 1.32 4 2 C2.35 3.98 0.7 5.96 -1 8 C-1.12375 7.360625 -1.2475 6.72125 -1.375 6.0625 C-1.684375 5.0415625 -1.684375 5.0415625 -2 4 C-2.66 3.67 -3.32 3.34 -4 3 C-2.68 2.01 -1.36 1.02 0 0 Z " fill="#7874A1" transform="translate(243,211)"/>
<path d="M0 0 C1.98 0.66 3.96 1.32 6 2 C5.01 3.485 5.01 3.485 4 5 C4 4.01 4 3.02 4 2 C2.68 2 1.36 2 0 2 C0 1.34 0 0.68 0 0 Z M0 5 C2.375 5.3125 2.375 5.3125 5 6 C5.66 6.99 6.32 7.98 7 9 C4.69 8.34 2.38 7.68 0 7 C0 6.34 0 5.68 0 5 Z " fill="#595786" transform="translate(274,265)"/>
<path d="M0 0 C-0.25 1.875 -0.25 1.875 -1 4 C-3.0625 5.25 -3.0625 5.25 -5 6 C-5.99 5.01 -6.98 4.02 -8 3 C-3.375 0 -3.375 0 0 0 Z " fill="#726E9A" transform="translate(208,264)"/>
<path d="M0 0 C1.32 0 2.64 0 4 0 C4 0.66 4 1.32 4 2 C3.34 2 2.68 2 2 2 C1.67 3.65 1.34 5.3 1 7 C0.01 6.67 -0.98 6.34 -2 6 C-2.33 5.01 -2.66 4.02 -3 3 C-2.34 3 -1.68 3 -1 3 C-0.67 2.01 -0.34 1.02 0 0 Z " fill="#554C8B" transform="translate(218,255)"/>
<path d="M0 0 C0.99 0 1.98 0 3 0 C3 2.31 3 4.62 3 7 C1.35 7.33 -0.3 7.66 -2 8 C-1.34 5.36 -0.68 2.72 0 0 Z " fill="#231865" transform="translate(364,252)"/>
<path d="M0 0 C1.32 0 2.64 0 4 0 C3.34 3.3 2.68 6.6 2 10 C1.34 10 0.68 10 0 10 C0 6.7 0 3.4 0 0 Z " fill="#271B63" transform="translate(305,250)"/>
<path d="M0 0 C0.99 0 1.98 0 3 0 C2.34 3.3 1.68 6.6 1 10 C0.01 9.67 -0.98 9.34 -2 9 C-1.34 6.03 -0.68 3.06 0 0 Z " fill="#211966" transform="translate(267,227)"/>
<path d="M0 0 C2.6875 0.3125 2.6875 0.3125 5 1 C4.34 2.32 3.68 3.64 3 5 C1.02 4.34 -0.96 3.68 -3 3 C-1.8125 1.4375 -1.8125 1.4375 0 0 Z " fill="#453F76" transform="translate(145,217)"/>
<path d="M0 0 C2 1 2 1 4 4 C1.525 5.485 1.525 5.485 -1 7 C-1 6.34 -1 5.68 -1 5 C-1.99 5.33 -2.98 5.66 -4 6 C-2.84826645 3.53199953 -1.95216435 1.95216435 0 0 Z " fill="#8481A7" transform="translate(201,211)"/>
<path d="M0 0 C2 3 2 3 1.625 6.1875 C1.41875 7.115625 1.2125 8.04375 1 9 C0.01 7.68 -0.98 6.36 -2 5 C-2.66 6.32 -3.32 7.64 -4 9 C-4 6.69 -4 4.38 -4 2 C-2.68 1.34 -1.36 0.68 0 0 Z " fill="#7F77A7" transform="translate(289,207)"/>
<path d="M0 0 C0.99 0 1.98 0 3 0 C3.33 1.32 3.66 2.64 4 4 C3.01 4.33 2.02 4.66 1 5 C1 5.66 1 6.32 1 7 C0.34 7 -0.32 7 -1 7 C-1.04254356 5.00045254 -1.04080783 2.99958364 -1 1 C-0.67 0.67 -0.34 0.34 0 0 Z " fill="#1F165F" transform="translate(272,254)"/>
<path d="M0 0 C0.98120464 3.05263664 0.98120464 4.94736336 0 8 C-0.66 8 -1.32 8 -2 8 C-2.99 8.66 -3.98 9.32 -5 10 C-5 9.01 -5 8.02 -5 7 C-4.34 7 -3.68 7 -3 7 C-2.87625 6.21625 -2.7525 5.4325 -2.625 4.625 C-2 2 -2 2 0 0 Z " fill="#666097" transform="translate(305,242)"/>
<path d="M0 0 C2.97 0.495 2.97 0.495 6 1 C5.34 3.31 4.68 5.62 4 8 C3.34 7.01 2.68 6.02 2 5 C0.68 5.33 -0.64 5.66 -2 6 C-1.34 4.02 -0.68 2.04 0 0 Z " fill="#70689C" transform="translate(283,246)"/>
<path d="M0 0 C1.32 0.66 2.64 1.32 4 2 C3.67 3.32 3.34 4.64 3 6 C1.68 6 0.36 6 -1 6 C-1.042721 4.33388095 -1.04063832 2.66617115 -1 1 C-0.67 0.67 -0.34 0.34 0 0 Z " fill="#433974" transform="translate(171,240)"/>
<path d="M0 0 C0.78375 0.04125 1.5675 0.0825 2.375 0.125 C2.705 1.115 3.035 2.105 3.375 3.125 C1.395 3.785 -0.585 4.445 -2.625 5.125 C-2.625 4.465 -2.625 3.805 -2.625 3.125 C-3.285 2.795 -3.945 2.465 -4.625 2.125 C-2.625 0.125 -2.625 0.125 0 0 Z " fill="#65608D" transform="translate(157.625,222.875)"/>
<path d="M0 0 C0.99 0.33 1.98 0.66 3 1 C3.6875 3.0625 3.6875 3.0625 4 5 C3.01 5 2.02 5 1 5 C0.67 6.32 0.34 7.64 0 9 C-1.125 6.1875 -1.125 6.1875 -2 3 C-1.34 2.01 -0.68 1.02 0 0 Z " fill="#7D76A0" transform="translate(167,213)"/>
<path d="M0 0 C1.65 0.99 3.3 1.98 5 3 C4.01 3.495 4.01 3.495 3 4 C2.34 3.67 1.68 3.34 1 3 C1 3.66 1 4.32 1 5 C-0.32 5.33 -1.64 5.66 -3 6 C-3.66 4.68 -4.32 3.36 -5 2 C-2.525 2.495 -2.525 2.495 0 3 C0 2.01 0 1.02 0 0 Z " fill="#615F91" transform="translate(128,266)"/>
<path d="M0 0 C0.66 0 1.32 0 2 0 C2 0.66 2 1.32 2 2 C2.66 2.33 3.32 2.66 4 3 C3.01 3.33 2.02 3.66 1 4 C1.33 4.99 1.66 5.98 2 7 C1.01 7.495 1.01 7.495 0 8 C-0.66 7.67 -1.32 7.34 -2 7 C-1.34 4.69 -0.68 2.38 0 0 Z " fill="#1C1354" transform="translate(360,264)"/>
<path d="M0 0 C0.66 0.33 1.32 0.66 2 1 C2.625 3.0625 2.625 3.0625 3 5 C1.35 5.66 -0.3 6.32 -2 7 C-2.6875 5.1875 -2.6875 5.1875 -3 3 C-1.5625 1.25 -1.5625 1.25 0 0 Z " fill="#50487D" transform="translate(191,256)"/>
<path d="M0 0 C0.99 0.33 1.98 0.66 3 1 C3 3.31 3 5.62 3 8 C1.68 8 0.36 8 -1 8 C-0.67 5.36 -0.34 2.72 0 0 Z " fill="#252060" transform="translate(286,210)"/>
<path d="M0 0 C0.99 0 1.98 0 3 0 C2.67 3.3 2.34 6.6 2 10 C1.67 10 1.34 10 1 10 C0.63720544 8.71073008 0.28503302 7.41846728 -0.0625 6.125 C-0.35833984 5.04605469 -0.35833984 5.04605469 -0.66015625 3.9453125 C-1 2 -1 2 0 0 Z " fill="#474177" transform="translate(238,215)"/>
<path d="M0 0 C4.75 0.75 4.75 0.75 7 3 C6.34 3 5.68 3 5 3 C5 3.66 5 4.32 5 5 C4.01 5 3.02 5 2 5 C1.67 5.66 1.34 6.32 1 7 C1 4 1 4 2 1 C1.34 0.67 0.68 0.34 0 0 Z " fill="#575289" transform="translate(262,260)"/>
<path d="M0 0 C0.99 0.33 1.98 0.66 3 1 C3 1.99 3 2.98 3 4 C2.34 4 1.68 4 1 4 C1 4.66 1 5.32 1 6 C-1.475 5.01 -1.475 5.01 -4 4 C-2.68 2.68 -1.36 1.36 0 0 Z " fill="#747195" transform="translate(229,254)"/>
<path d="M0 0 C0.66 0.66 1.32 1.32 2 2 C1.2884375 2.6496875 1.2884375 2.6496875 0.5625 3.3125 C-1.23686957 5.02309613 -1.23686957 5.02309613 -2 8 C-2.99 8 -3.98 8 -5 8 C-5.3125 5.6875 -5.3125 5.6875 -5 3 C-2.5 1.1875 -2.5 1.1875 0 0 Z " fill="#3E3572" transform="translate(201,246)"/>
<path d="M0 0 C0 1.98 0 3.96 0 6 C-1.32 6 -2.64 6 -4 6 C-4 4.35 -4 2.7 -4 1 C-1 0 -1 0 0 0 Z " fill="#2F2666" transform="translate(192,229)"/>
<path d="M0 0 C1.32 0.66 2.64 1.32 4 2 C2.68 3.65 1.36 5.3 0 7 C0 6.01 0 5.02 0 4 C-0.66 4 -1.32 4 -2 4 C-1.34 2.68 -0.68 1.36 0 0 Z " fill="#524E81" transform="translate(276,207)"/>
<path d="M0 0 C0.99 0 1.98 0 3 0 C2.67 1.98 2.34 3.96 2 6 C0.68 5.67 -0.64 5.34 -2 5 C-1.34 3.35 -0.68 1.7 0 0 Z " fill="#3F3C73" transform="translate(351,279)"/>
<path d="M0 0 C0.99 0 1.98 0 3 0 C2.67 1.65 2.34 3.3 2 5 C1.01 5.33 0.02 5.66 -1 6 C-1.33 5.01 -1.66 4.02 -2 3 C-1.34 2.01 -0.68 1.02 0 0 Z " fill="#22175B" transform="translate(219,247)"/>
<path d="M0 0 C1.65 0.33 3.3 0.66 5 1 C4.67 1.99 4.34 2.98 4 4 C2.02 4 0.04 4 -2 4 C-1.34 2.68 -0.68 1.36 0 0 Z " fill="#1E145D" transform="translate(306,242)"/>
<path d="M0 0 C1.98 0 3.96 0 6 0 C5 2 4 4 3 6 C1 5 1 5 -1 2 C-0.67 1.34 -0.34 0.68 0 0 Z " fill="#231E67" transform="translate(364,241)"/>
<path d="M0 0 C1.32 0.66 2.64 1.32 4 2 C3.67 2.99 3.34 3.98 3 5 C3.99 4.67 4.98 4.34 6 4 C6.33 4.66 6.66 5.32 7 6 C4.6875 6.25 4.6875 6.25 2 6 C0.1875 4 0.1875 4 -1 2 C-0.67 1.34 -0.34 0.68 0 0 Z " fill="#1C185C" transform="translate(279,268)"/>
<path d="M0 0 C2.31 0.33 4.62 0.66 7 1 C5.875 2.5 5.875 2.5 4 4 C0.8125 4.1875 0.8125 4.1875 -2 4 C-1.34 2.68 -0.68 1.36 0 0 Z " fill="#686492" transform="translate(379,267)"/>
<path d="M0 0 C1.65 0 3.3 0 5 0 C4.67 1.32 4.34 2.64 4 4 C2.35 3.67 0.7 3.34 -1 3 C-0.67 2.01 -0.34 1.02 0 0 Z " fill="#1E1A55" transform="translate(244,267)"/>
<path d="M0 0 C1.65 0.33 3.3 0.66 5 1 C4.34 1.66 3.68 2.32 3 3 C2.01 3 1.02 3 0 3 C-0.66 4.32 -1.32 5.64 -2 7 C-2 3.89448334 -1.4606285 2.64738916 0 0 Z " fill="#1A135C" transform="translate(254,261)"/>
<path d="M0 0 C1.66666667 0 3.33333333 0 5 0 C5 0.99 5 1.98 5 3 C2.69 3.33 0.38 3.66 -2 4 C-2 3.34 -2 2.68 -2 2 C-1.34 2 -0.68 2 0 2 C0 1.34 0 0.68 0 0 Z " fill="#423E73" transform="translate(325,258)"/>
<path d="M0 0 C0.33 0.99 0.66 1.98 1 3 C2.65 2.67 4.3 2.34 6 2 C5.67 3.32 5.34 4.64 5 6 C4.67 5.34 4.34 4.68 4 4 C2.02 4.99 2.02 4.99 0 6 C-1 3 -1 3 0 0 Z " fill="#231D60" transform="translate(326,254)"/>
<path d="M0 0 C0.99 0 1.98 0 3 0 C3.33 1.98 3.66 3.96 4 6 C3.01 6.33 2.02 6.66 1 7 C0.67 4.69 0.34 2.38 0 0 Z " fill="#201358" transform="translate(187,252)"/>
<path d="M0 0 C1.32 0.66 2.64 1.32 4 2 C3.67 3.32 3.34 4.64 3 6 C2.34 5.01 1.68 4.02 1 3 C-0.98 3.66 -2.96 4.32 -5 5 C-3.35 3.35 -1.7 1.7 0 0 Z " fill="#938FB0" transform="translate(349,240)"/>
<path d="M0 0 C0.66 0 1.32 0 2 0 C2.625 2.3125 2.625 2.3125 3 5 C2.01 6.485 2.01 6.485 1 8 C0.67 7.01 0.34 6.02 0 5 C-0.66 4.67 -1.32 4.34 -2 4 C-1.34 2.68 -0.68 1.36 0 0 Z " fill="#554D84" transform="translate(191,225)"/>
<path d="M0 0 C2.97 0.495 2.97 0.495 6 1 C6 1.66 6 2.32 6 3 C6.66 3 7.32 3 8 3 C7.67 3.99 7.34 4.98 7 6 C6.01 5.67 5.02 5.34 4 5 C4.33 4.01 4.66 3.02 5 2 C3.35 2 1.7 2 0 2 C0 1.34 0 0.68 0 0 Z " fill="#787699" transform="translate(386,269)"/>
<path d="M0 0 C2.475 0.99 2.475 0.99 5 2 C5 2.66 5 3.32 5 4 C2.69 4 0.38 4 -2 4 C-1.34 3.67 -0.68 3.34 0 3 C0 2.01 0 1.02 0 0 Z " fill="#3E3B70" transform="translate(198,267)"/>
<path d="M0 0 C0.598125 0.185625 1.19625 0.37125 1.8125 0.5625 C4.16408762 1.22093687 4.16408762 1.22093687 7 0 C7.33 0.99 7.66 1.98 8 3 C5.39417629 3.93065133 4.35801776 4.14917407 1.75 3.0625 C1.1725 2.711875 0.595 2.36125 0 2 C0 1.34 0 0.68 0 0 Z " fill="#66618B" transform="translate(352,258)"/>
<path d="M0 0 C2.31 0.66 4.62 1.32 7 2 C6.34 2.66 5.68 3.32 5 4 C1.875 3.625 1.875 3.625 -1 3 C-0.67 2.01 -0.34 1.02 0 0 Z " fill="#241D64" transform="translate(164,258)"/>
<path d="M0 0 C1.32 1.32 2.64 2.64 4 4 C2 6 2 6 -1.125 6.125 C-2.548125 6.063125 -2.548125 6.063125 -4 6 C-2.68 5.67 -1.36 5.34 0 5 C0 3.35 0 1.7 0 0 Z " fill="#5D5587" transform="translate(201,256)"/>
<path d="M0 0 C0.99 0.33 1.98 0.66 3 1 C3 2.98 3 4.96 3 7 C1.35 5.35 -0.3 3.7 -2 2 C-1.34 1.34 -0.68 0.68 0 0 Z " fill="#2B2168" transform="translate(283,250)"/>
<path d="M0 0 C1.485 0.99 1.485 0.99 3 2 C2.25 6.75 2.25 6.75 0 9 C0 6.03 0 3.06 0 0 Z " fill="#67618D" transform="translate(229,241)"/>
<path d="M0 0 C0.33 1.32 0.66 2.64 1 4 C-0.65 4 -2.3 4 -4 4 C-4 4.66 -4 5.32 -4 6 C-3.34 6.33 -2.68 6.66 -2 7 C-3.65 6.67 -5.3 6.34 -7 6 C-6.34 5.01 -5.68 4.02 -5 3 C-2.375 2.8125 -2.375 2.8125 0 3 C0 2.01 0 1.02 0 0 Z " fill="#61598E" transform="translate(212,238)"/>
<path d="M0 0 C0.66 0 1.32 0 2 0 C2.33 0.99 2.66 1.98 3 3 C1.35 4.65 -0.3 6.3 -2 8 C-1.125 1.125 -1.125 1.125 0 0 Z " fill="#433C71" transform="translate(126,237)"/>
<path d="M0 0 C1.98 0 3.96 0 6 0 C6 0.99 6 1.98 6 3 C4.35 3.33 2.7 3.66 1 4 C0.67 2.68 0.34 1.36 0 0 Z " fill="#363068" transform="translate(278,205)"/>
<path d="M0 0 C0.66 0 1.32 0 2 0 C2.66 1.32 3.32 2.64 4 4 C1.69 4 -0.62 4 -3 4 C-3 3.34 -3 2.68 -3 2 C-2.01 2 -1.02 2 0 2 C0 1.34 0 0.68 0 0 Z " fill="#221B5F" transform="translate(267,263)"/>
<path d="M0 0 C2.475 0.495 2.475 0.495 5 1 C5.33 2.32 5.66 3.64 6 5 C4.125 4.75 4.125 4.75 2 4 C0.75 1.9375 0.75 1.9375 0 0 Z " fill="#5E5791" transform="translate(190,265)"/>
<path d="M0 0 C0.66 0 1.32 0 2 0 C2 0.99 2 1.98 2 3 C2.66 3.33 3.32 3.66 4 4 C0.77208445 6.1519437 -0.28400809 6.20086443 -4 6 C-2.68 5.67 -1.36 5.34 0 5 C0 3.35 0 1.7 0 0 Z " fill="#8986B2" transform="translate(317,256)"/>
<path d="M0 0 C0.99 0 1.98 0 3 0 C3.33 0.99 3.66 1.98 4 3 C2.35 3.66 0.7 4.32 -1 5 C-1 2 -1 2 0 0 Z " fill="#281965" transform="translate(296,251)"/>
<path d="M0 0 C1.32 0 2.64 0 4 0 C4.33 1.65 4.66 3.3 5 5 C3.35 4.67 1.7 4.34 0 4 C0 2.68 0 1.36 0 0 Z " fill="#21175A" transform="translate(312,253)"/>
<path d="M0 0 C1.32 0.33 2.64 0.66 4 1 C3.42655063 3.86724686 3.1385485 4.8614515 1 7 C0.67 4.69 0.34 2.38 0 0 Z " fill="#4F497C" transform="translate(174,251)"/>
<path d="M0 0 C0.33 0 0.66 0 1 0 C1 1.98 1 3.96 1 6 C-0.32 6.33 -1.64 6.66 -3 7 C-1.125 1.125 -1.125 1.125 0 0 Z " fill="#211652" transform="translate(178,246)"/>
<path d="M0 0 C0.99 0.33 1.98 0.66 3 1 C3 2.32 3 3.64 3 5 C1.68 5 0.36 5 -1 5 C-0.67 3.35 -0.34 1.7 0 0 Z " fill="#403871" transform="translate(316,245)"/>
<path d="M0 0 C1.65 0.33 3.3 0.66 5 1 C5 1.66 5 2.32 5 3 C2.69 3 0.38 3 -2 3 C-1.34 2.01 -0.68 1.02 0 0 Z " fill="#21185A" transform="translate(337,242)"/>
<path d="M0 0 C0.33 0.99 0.66 1.98 1 3 C0.34 3 -0.32 3 -1 3 C-1.33 3.99 -1.66 4.98 -2 6 C-2.66 6 -3.32 6 -4 6 C-4 4.35 -4 2.7 -4 1 C-2.68 0.67 -1.36 0.34 0 0 Z " fill="#1B1359" transform="translate(267,238)"/>
</svg>
